<?xml version="1.0" encoding="UTF-8"?>
<svg width="1200pt" height="1200pt" version="1.1" viewBox="0 0 1200 1200" xmlns="http://www.w3.org/2000/svg">
 <g fill="#fff">
  <path d="m1080 319.95h-695.06v-7.1406c0-34.641-28.172-62.812-62.812-62.812s-62.812 28.172-62.812 62.812v7.1406h-139.32c-11.047 0-20 8.9531-20 20s8.9531 20 20 20h139.6c1.4805 33.332 28.84 60.047 62.531 60.047s61.051-26.715 62.531-60.047h695.34c11.047 0 20-8.9531 20-20s-8.9531-20-20-20zm-735.06 37.234c0 12.578-10.234 22.812-22.812 22.812s-22.812-10.234-22.812-22.812v-44.375c0-12.578 10.234-22.812 22.812-22.812s22.812 10.234 22.812 22.812z"/>
  <path d="m1080 580.05h-139.71c-1.4805-33.332-28.84-60.047-62.531-60.047s-61.051 26.715-62.531 60.047h-695.22c-11.047 0-20 8.9531-20 20s8.9531 20 20 20h694.94v7.1406c0 34.629 28.172 62.812 62.812 62.812s62.812-28.184 62.812-62.812v-7.1406h139.43c11.047 0 20-8.9531 20-20 0-11.043-8.9531-20-20-20zm-202.25 69.953c-12.578 0-22.812-10.234-22.812-22.812v-26.848c0-0.10156 0.058594-0.1875 0.058594-0.29297 0-0.10156-0.058594-0.1875-0.058594-0.28906v-16.945c0-12.578 10.234-22.812 22.812-22.812s22.812 10.234 22.812 22.812v17.188c0 0.015625-0.011718 0.03125-0.011718 0.046875s0.011718 0.03125 0.011718 0.046875v27.09c0 12.582-10.234 22.816-22.812 22.816z"/>
  <path d="m1080 840h-695.34c-1.5078-33.301-28.852-60-62.527-60-33.676 0-61.02 26.699-62.527 60h-139.6c-11.047 0-20 8.9453-20 20s8.9531 20 20 20h139.32v7.1875c0 34.629 28.172 62.812 62.812 62.812s62.812-28.184 62.812-62.812v-7.1875h695.06c11.047 0 20-8.9453 20-20s-8.9531-20-20-20zm-735.06 47.188c0 12.578-10.234 22.812-22.812 22.812s-22.812-10.234-22.812-22.812v-44.375c0-12.578 10.234-22.812 22.812-22.812s22.812 10.234 22.812 22.812z"/>
 </g>
</svg>
