<?xml version="1.0" encoding="UTF-8"?>
<svg width="1200pt" height="1200pt" version="1.1" viewBox="0 0 1200 1200" xmlns="http://www.w3.org/2000/svg">
 <g fill="#fff">
  <path d="m1080 319.8h-655v37.398c0 0.80078 0 1.8008-0.19922 2.6016h655.2c11.199 0 20-8.8008 20-20 0-11-8.8008-20-20-20z"/>
  <path d="m120 359.8h99.602c-0.19922-0.80078-0.19922-1.8008-0.19922-2.6016v-37.398h-99.402c-11 0-20 9-20 20 0 11.199 9 20 20 20z"/>
  <path d="m1080 580h-99.602c0.19922 1 0.19922 1.8008 0.19922 2.8008v37.199h99.402c11.199 0 20-9 20-20s-8.8008-20-20-20z"/>
  <path d="m120 620h655v-37.199c0-1 0-1.8008 0.19922-2.8008h-655.2c-11 0-20 9-20 20s9 20 20 20z"/>
  <path d="m1080 840h-655.2c0.19922 1 0.19922 1.8008 0.19922 2.8008v37.199h655c11.199 0 20-9 20-20 0-11.199-8.8008-20-20-20z"/>
  <path d="m120 880h99.398v-37.199c0-1 0-1.8008 0.19922-2.8008h-99.598c-11 0-20 8.8008-20 20 0 11 9 20 20 20z"/>
  <path d="m322.2 780c-34.602 0-62.801 28-62.801 62.801v44.398c0 34.602 28.199 62.801 62.801 62.801 34.602 0 62.801-28.199 62.801-62.801v-44.398c0-34.801-28.199-62.801-62.801-62.801z"/>
  <path d="m259.4 312.8v44.398c0 34.602 28.203 62.801 62.801 62.801 34.602 0 62.801-28.199 62.801-62.801v-44.398c0-34.801-28.199-62.801-62.801-62.801-34.598 0-62.801 28-62.801 62.801z"/>
  <path d="m940.6 627.2v-44.398c0-34.801-28.199-62.801-62.797-62.801-34.602 0-62.801 28-62.801 62.801v44.398c0 34.602 28.199 62.801 62.801 62.801 34.598 0 62.797-28.199 62.797-62.801z"/>
 </g>
</svg>
