<?xml version="1.0" encoding="UTF-8"?>
<svg width="1200pt" height="1200pt" version="1.1" viewBox="0 0 1200 1200" xmlns="http://www.w3.org/2000/svg">
 <path transform="scale(18.75)" d="m42 52c0 3.3138-4.4771 6-10 6s-10-2.6862-10-6 4.4771-6 10-6 10 2.6862 10 6" fill="#fff" stroke="#fff" stroke-linecap="round" stroke-linejoin="round" stroke-width="2"/>
 <path transform="scale(18.75)" d="m56 20c0-1.105-6.2621-2-14-2v-12c0 4.4221 3.5779 8 8 8 3.316 0 6 2.684 6 6" fill="#fff" stroke="#fff" stroke-linecap="round" stroke-linejoin="round" stroke-width="2"/>
 <path d="m600 131.25h-412.5c-10.352 0-18.75 8.3984-18.75 18.75v562.5c0 10.367 8.3984 18.75 18.75 18.75h412.5c10.352 0 18.75-8.3828 18.75-18.75v-562.5c0-10.352-8.3984-18.75-18.75-18.75zm-75 487.5h-262.5c-10.352 0-18.75-8.3984-18.75-18.75s8.3984-18.75 18.75-18.75h262.5c10.352 0 18.75 8.3984 18.75 18.75s-8.3984 18.75-18.75 18.75zm0-112.5h-262.5c-10.352 0-18.75-8.3984-18.75-18.75s8.3984-18.75 18.75-18.75h262.5c10.352 0 18.75 8.3984 18.75 18.75s-8.3984 18.75-18.75 18.75zm0-112.5h-262.5c-10.352 0-18.75-8.3984-18.75-18.75s8.3984-18.75 18.75-18.75h262.5c10.352 0 18.75 8.3984 18.75 18.75s-8.3984 18.75-18.75 18.75zm0-112.5h-262.5c-10.352 0-18.75-8.3984-18.75-18.75s8.3984-18.75 18.75-18.75h262.5c10.352 0 18.75 8.3984 18.75 18.75s-8.3984 18.75-18.75 18.75z" fill="#fff"/>
 <path transform="scale(18.75)" d="m42 18v34" fill="none" stroke="#fff" stroke-linecap="round" stroke-linejoin="round" stroke-width="2"/>
</svg>
