<?xml version="1.0" encoding="UTF-8"?>
<svg width="1200pt" height="1200pt" version="1.1" viewBox="0 0 1200 1200" xmlns="http://www.w3.org/2000/svg">
 <g fill="#fff">
  <path d="m937.5 243.75c-72.355 0-131.25-58.875-131.25-131.25 0-10.352-8.3828-18.75-18.75-18.75s-18.75 8.3984-18.75 18.75v786.3c-37.031-33.508-98.137-55.051-168.75-55.051-115.65 0-206.25 57.656-206.25 131.25s90.602 131.25 206.25 131.25 206.25-57.656 206.25-131.25v-618.62c134.34 1.3125 210.92 16.352 226.29 25.461 0.039062 0.074219 0.09375 0.13281 0.13281 0.22656 0.16797 0.39453 0.42969 0.73047 0.63672 1.1055 0.76953 1.5938 1.7422 3.0391 2.9062 4.332 0.48828 0.52344 1.0117 0.97656 1.5391 1.4453 1.1641 1.0312 2.4375 1.875 3.8242 2.5703 0.60156 0.32031 1.1641 0.65625 1.8008 0.88281 2.0781 0.80078 4.2734 1.3438 6.6172 1.3438 10.367 0 18.75-8.3984 18.75-18.75 0-72.375-58.895-131.25-131.25-131.25zm-337.5 825c-91.48 0-168.75-42.938-168.75-93.75s77.289-93.75 168.75-93.75 168.75 42.938 168.75 93.75-77.27 93.75-168.75 93.75zm206.25-850.41c30.957 38.305 78.262 62.906 131.25 62.906 39.262 0 72.844 24.32 86.793 58.633-50.832-15.508-137.38-20.422-218.04-21.039z"/>
  <path d="m262.5 281.25h337.5c10.352 0 18.75-8.3984 18.75-18.75s-8.3984-18.75-18.75-18.75h-337.5c-10.352 0-18.75 8.3984-18.75 18.75s8.3828 18.75 18.75 18.75z"/>
  <path d="m262.5 393.75h337.5c10.352 0 18.75-8.3984 18.75-18.75s-8.3984-18.75-18.75-18.75h-337.5c-10.352 0-18.75 8.3984-18.75 18.75s8.3828 18.75 18.75 18.75z"/>
  <path d="m262.5 506.25h337.5c10.352 0 18.75-8.3984 18.75-18.75s-8.3984-18.75-18.75-18.75h-337.5c-10.352 0-18.75 8.3984-18.75 18.75s8.3828 18.75 18.75 18.75z"/>
  <path d="m618.75 600c0-10.352-8.3984-18.75-18.75-18.75h-337.5c-10.352 0-18.75 8.3984-18.75 18.75s8.3984 18.75 18.75 18.75h337.5c10.352 0 18.75-8.3984 18.75-18.75z"/>
 </g>
</svg>
