<?xml version="1.0" encoding="UTF-8"?>
<svg width="1200pt" height="1200pt" version="1.1" viewBox="0 0 1200 1200" xmlns="http://www.w3.org/2000/svg">
 <path d="m476.03 132.1c-4.4414 0.46875-8.5508 2.5664-11.531 5.8945-2.9805 3.3242-4.6172 7.6406-4.5938 12.105v231.38c-0.003906 0.25-0.003906 0.5 0 0.75-0.011719 0.375-0.011719 0.75 0 1.125v0.375 498.38c-10.68-6.3281-22.992-10.891-36-13.5-15.336-3.0742-32.094-3.7852-49.5-2.25-17.406 1.5352-35.496 5.3516-53.625 11.625-36.254 12.551-66.121 32.508-85.875 56.25-19.754 23.742-29.73 53.547-19.5 81 10.23 27.453 36.828 43.348 67.5 49.5 30.672 6.1523 66.871 3.5508 103.12-9 36.262-12.551 66.492-32.508 86.25-56.25 15.254-18.328 24.832-40.188 23.625-61.875 0.023437-0.5 0.023437-1 0-1.5v-536.62h456.75v337.5c-10.781-6.4688-23.191-11.23-36.375-13.875-15.336-3.0742-32.094-3.7852-49.5-2.25-17.406 1.5352-35.496 5.3516-53.625 11.625-36.254 12.551-66.117 32.508-85.875 56.25-19.758 23.742-29.738 53.172-19.5 80.625 10.23 27.453 36.832 43.723 67.5 49.875 30.668 6.1523 66.863 3.1758 103.12-9.375 36.262-12.551 66.117-32.508 85.875-56.25 13.672-16.43 22.664-35.414 23.625-54.75 0.47266-1.582 0.72656-3.2227 0.75-4.875v-410.25c0.023437-0.5 0.023437-1 0-1.5 0.007812-0.25 0.007812-0.5 0-0.75v-231.38c0-4.7734-1.8945-9.3516-5.2695-12.727-3.3789-3.375-7.957-5.2734-12.73-5.2734h-492.75c-0.625-0.03125-1.25-0.03125-1.875 0z" fill="#fff"/>
</svg>
