<svg width="260" height="260" viewBox="0 0 260 260" fill="none" xmlns="http://www.w3.org/2000/svg">
<path d="M120.38 38.7402V58.5002C105.82 62.6602 95.16 75.9202 95.16 91.5202C95.16 107.12 105.82 120.38 120.38 124.54V221.26C120.38 226.46 124.54 230.88 130 230.88C135.2 230.88 139.62 226.72 139.62 221.26V124.8C154.18 120.64 164.84 107.38 164.84 91.7802C164.84 76.1802 154.18 62.9202 139.62 58.7602V39.0002C139.62 33.8002 135.46 29.3802 130 29.3802C124.8 29.1202 120.38 33.2802 120.38 38.7402ZM145.6 91.5202C145.6 99.8402 138.84 107.12 130 107.12C121.16 107.12 114.4 100.36 114.4 91.5202C114.4 82.6802 121.16 75.9202 130 75.9202C138.84 75.9202 145.6 83.2002 145.6 91.5202Z" fill="white"/>
<path d="M63.44 221.26V200.72C78 196.56 88.66 183.3 88.66 167.7C88.66 152.1 78 138.84 63.44 134.68V38.7401C63.44 33.5401 59.28 29.1201 53.82 29.1201C48.36 29.1201 44.2 33.2801 44.2 38.7401V134.68C29.64 138.84 18.98 152.1 18.98 167.7C18.98 183.3 29.64 196.56 44.2 200.72V221.26C44.2 226.46 48.36 230.88 53.82 230.88C59.28 230.88 63.44 226.72 63.44 221.26ZM38.22 167.7C38.22 159.38 44.98 152.1 53.82 152.1C62.66 152.1 69.42 158.86 69.42 167.7C69.42 176.54 62.14 183.3 53.82 183.3C45.5 183.3 38.22 176.02 38.22 167.7Z" fill="white"/>
<path d="M196.56 38.7401V134.68C182 138.84 171.34 152.1 171.34 167.7C171.34 183.3 182 196.56 196.56 200.72V221.26C196.56 226.46 200.72 230.88 206.18 230.88C211.64 230.88 215.8 226.72 215.8 221.26V200.72C230.36 196.56 241.02 183.3 241.02 167.7C241.02 152.1 230.36 138.84 215.8 134.68V38.7401C215.8 33.5401 211.64 29.1201 206.18 29.1201C200.72 29.1201 196.56 33.2801 196.56 38.7401ZM221.78 167.7C221.78 176.02 215.02 183.3 206.18 183.3C197.34 183.3 190.58 176.54 190.58 167.7C190.58 158.86 197.34 152.1 206.18 152.1C215.02 152.1 221.78 159.38 221.78 167.7Z" fill="white"/>
</svg>
