<?xml version="1.0" encoding="UTF-8"?>
<svg width="1200pt" height="1200pt" version="1.1" viewBox="0 0 1200 1200" xmlns="http://www.w3.org/2000/svg">
 <path d="m1052.6 600 112.72-103.38c12.645-11.484 20.961-26.969 23.559-43.852 2.5977-16.887-0.68359-34.152-9.2969-48.91l-119.91-207.71c-8.4727-14.844-21.789-26.324-37.715-32.523-15.922-6.1992-33.496-6.7422-49.773-1.5352l-130.15 40.977-19.301-11.133-29.605-133.19c-3.6211-16.699-12.867-31.648-26.195-42.344-13.328-10.691-29.922-16.484-47.012-16.398h-239.83 0.003907c-17.09-0.085938-33.684 5.707-47.012 16.398-13.328 10.695-22.574 25.645-26.195 42.344l-29.609 133.19-19.297 11.129-130.17-40.977c-16.273-5.2422-33.855-4.7188-49.785 1.4844-15.93 6.2031-29.238 17.707-37.684 32.574l-119.91 207.71c-8.6133 14.758-11.895 32.023-9.2969 48.91 2.5977 16.883 10.914 32.367 23.559 43.852l112.72 103.38-112.72 103.38c-12.645 11.484-20.961 26.969-23.559 43.852-2.5977 16.887 0.68359 34.152 9.2969 48.91l119.91 207.71v-0.003906c8.4648 14.852 21.777 26.34 37.707 32.539 15.93 6.2031 33.504 6.7383 49.781 1.5195l130.15-40.977 19.301 11.133 29.609 133.19h-0.003906c3.6211 16.699 12.867 31.645 26.195 42.34 13.328 10.691 29.922 16.484 47.012 16.398h239.83-0.003907c17.09 0.085938 33.684-5.707 47.012-16.398 13.328-10.695 22.574-25.645 26.195-42.344l29.609-133.19 19.301-11.133 130.17 40.98c16.273 5.1875 33.836 4.6328 49.754-1.5625 15.918-6.1992 29.23-17.668 37.715-32.496l119.91-207.71v0.003906c8.6133-14.758 11.895-32.023 9.2969-48.91-2.5977-16.883-10.914-32.367-23.559-43.852zm-452.6 262.5c-69.621 0-136.39-27.656-185.62-76.883-49.227-49.23-76.883-116-76.883-185.62s27.656-136.39 76.883-185.62c49.23-49.227 116-76.883 185.62-76.883s136.39 27.656 185.62 76.883c49.227 49.23 76.883 116 76.883 185.62-0.082031 69.594-27.762 136.32-76.973 185.53-49.211 49.211-115.93 76.891-185.53 76.973zm187.5-262.5c0 49.727-19.754 97.418-54.918 132.58-35.164 35.164-82.855 54.918-132.58 54.918s-97.418-19.754-132.58-54.918c-35.164-35.164-54.918-82.855-54.918-132.58s19.754-97.418 54.918-132.58c35.164-35.164 82.855-54.918 132.58-54.918 49.711 0.058594 97.367 19.832 132.52 54.98 35.148 35.152 54.922 82.809 54.98 132.52z" fill="#fff"/>
</svg>
