<svg height='100px' width='100px'  fill="#000000" xmlns:x="http://ns.adobe.com/Extensibility/1.0/" xmlns:i="http://ns.adobe.com/AdobeIllustrator/10.0/" xmlns:graph="http://ns.adobe.com/Graphs/1.0/" xmlns="http://www.w3.org/2000/svg" xmlns:xlink="http://www.w3.org/1999/xlink" version="1.1" x="0px" y="0px" viewBox="0 0 100 100" style="enable-background:new 0 0 100 100;" xml:space="preserve"><g><g i:extraneous="self"><path d="M91.9,64.7l-12-12c-0.9-0.9-2.2-0.9-3.1,0l-8.9,8.9l-36-36c1.1-1.7,2-3.5,2.7-5.4l0.9-2.8c0.5-1.6,0.1-3.3-1.1-4.5l-9-9    c-0.8-0.8-2-1.3-3.2-1.3l0,0C21,2.5,19.9,3,19,3.8L3.8,19c-1.7,1.7-1.7,4.6,0,6.3l9,9c0.9,0.9,2,1.3,3.2,1.3    c0.5,0,0.9-0.1,1.3-0.2l2.9-0.9c2-0.6,3.7-1.6,5.4-2.7l36,36l-8.9,8.9c-0.9,0.9-0.9,2.2,0,3.1l12,12c7.5,7.5,19.6,7.5,27.1,0    S99.4,72.2,91.9,64.7z M17.5,26l-0.3,0.1l-3.9-3.9l8.9-8.9l3.9,3.9L26,17.5C24.7,21.5,21.5,24.7,17.5,26z"></path></g></g></svg>