<svg height='100px' width='100px'  fill="#ffffff" xmlns="http://www.w3.org/2000/svg" xmlns:xlink="http://www.w3.org/1999/xlink" version="1.1" x="0px" y="0px" viewBox="0 0 48 48" enable-background="new 0 0 48 48" xml:space="preserve"><g><path d="M39.484,23.663c0.033-0.828-0.611-1.525-1.439-1.558c-0.826-0.021-1.525,0.612-1.559,1.44   C36.204,30.682,30.719,36.273,24,36.273c-6.719,0-12.204-5.592-12.486-12.729c-0.033-0.828-0.737-1.461-1.558-1.44   c-0.828,0.033-1.473,0.73-1.44,1.558c0.326,8.222,6.346,14.769,13.984,15.535V45h-5.996c-0.829,0-1.5,0.672-1.5,1.5   s0.671,1.5,1.5,1.5h14.991c0.829,0,1.5-0.672,1.5-1.5s-0.671-1.5-1.5-1.5H25.5v-5.803C33.139,38.432,39.158,31.885,39.484,23.663z"></path><path d="M20.054,22.777c0,0.552-0.485,1-1.083,1h-3.871c0.536,4.516,4.319,8.027,8.899,8.027c4.58,0,8.363-3.512,8.899-8.027   h-3.871c-0.598,0-1.083-0.448-1.083-1s0.485-1,1.083-1h3.942v-4.875h-3.942c-0.598,0-1.083-0.448-1.083-1s0.485-1,1.083-1h3.942   v-4.875h-3.942c-0.598,0-1.083-0.448-1.083-1s0.485-1,1.083-1h3.871C32.363,3.512,28.58,0,24,0c-4.581,0-8.364,3.512-8.899,8.027   h3.871c0.598,0,1.083,0.448,1.083,1s-0.485,1-1.083,1h-3.942v4.875h3.942c0.598,0,1.083,0.448,1.083,1s-0.485,1-1.083,1h-3.942   v4.875h3.942C19.569,21.777,20.054,22.225,20.054,22.777z"></path></g></svg>