<svg height='100px' width='100px'  fill="#ffffff" xmlns="http://www.w3.org/2000/svg" xmlns:xlink="http://www.w3.org/1999/xlink" version="1.1" x="0px" y="0px" viewBox="0 0 48 48" enable-background="new 0 0 48 48" xml:space="preserve"><circle cx="38" cy="34" r="3"></circle><path d="M43,0H5C2.243,0,0,2.243,0,5v38c0,2.757,2.243,5,5,5h38c2.757,0,5-2.243,5-5V5C48,2.243,45.757,0,43,0z M11,18.899V43  c0,0.552-0.448,1-1,1s-1-0.448-1-1V18.899C6.721,18.434,5,16.414,5,14s1.721-4.434,4-4.899V5c0-0.552,0.448-1,1-1s1,0.448,1,1v4.101  c2.279,0.465,4,2.484,4,4.899S13.279,18.434,11,18.899z M20,44h-3c-0.552,0-1-0.448-1-1s0.448-1,1-1h3c0.552,0,1,0.448,1,1  S20.552,44,20,44z M20,40h-3c-0.552,0-1-0.448-1-1s0.448-1,1-1h3c0.552,0,1,0.448,1,1S20.552,40,20,40z M20,36h-3  c-0.552,0-1-0.448-1-1s0.448-1,1-1h3c0.552,0,1,0.448,1,1S20.552,36,20,36z M20,32h-3c-0.552,0-1-0.448-1-1s0.448-1,1-1h3  c0.552,0,1,0.448,1,1S20.552,32,20,32z M20,28h-3c-0.552,0-1-0.448-1-1s0.448-1,1-1h3c0.552,0,1,0.448,1,1S20.552,28,20,28z M20,24  h-3c-0.552,0-1-0.448-1-1s0.448-1,1-1h3c0.552,0,1,0.448,1,1S20.552,24,20,24z M20,20h-3c-0.552,0-1-0.448-1-1s0.448-1,1-1h3  c0.552,0,1,0.448,1,1S20.552,20,20,20z M20,10h-3c-0.552,0-1-0.448-1-1s0.448-1,1-1h3c0.552,0,1,0.448,1,1S20.552,10,20,10z M20,6  h-3c-0.552,0-1-0.448-1-1s0.448-1,1-1h3c0.552,0,1,0.448,1,1S20.552,6,20,6z M31,44h-3c-0.552,0-1-0.448-1-1s0.448-1,1-1h3  c0.552,0,1,0.448,1,1S31.552,44,31,44z M31,40h-3c-0.552,0-1-0.448-1-1s0.448-1,1-1h3c0.552,0,1,0.448,1,1S31.552,40,31,40z M31,30  h-3c-0.552,0-1-0.448-1-1s0.448-1,1-1h3c0.552,0,1,0.448,1,1S31.552,30,31,30z M31,26h-3c-0.552,0-1-0.448-1-1s0.448-1,1-1h3  c0.552,0,1,0.448,1,1S31.552,26,31,26z M31,22h-3c-0.552,0-1-0.448-1-1s0.448-1,1-1h3c0.552,0,1,0.448,1,1S31.552,22,31,22z M31,18  h-3c-0.552,0-1-0.448-1-1s0.448-1,1-1h3c0.552,0,1,0.448,1,1S31.552,18,31,18z M31,14h-3c-0.552,0-1-0.448-1-1s0.448-1,1-1h3  c0.552,0,1,0.448,1,1S31.552,14,31,14z M31,10h-3c-0.552,0-1-0.448-1-1s0.448-1,1-1h3c0.552,0,1,0.448,1,1S31.552,10,31,10z M31,6  h-3c-0.552,0-1-0.448-1-1s0.448-1,1-1h3c0.552,0,1,0.448,1,1S31.552,6,31,6z M39,38.899V43c0,0.552-0.448,1-1,1s-1-0.448-1-1v-4.101  c-2.279-0.465-4-2.484-4-4.899s1.721-4.434,4-4.899V5c0-0.552,0.448-1,1-1s1,0.448,1,1v24.101c2.279,0.465,4,2.484,4,4.899  S41.279,38.434,39,38.899z"></path><circle cx="10" cy="14" r="3"></circle></svg>