<svg height='100px' width='100px'  fill="#ffffff" xmlns="http://www.w3.org/2000/svg" data-name="Layer 1" viewBox="0 0 64 64" x="0px" y="0px"><title>winter</title><path d="M12,37.5H53a6.794,6.794,0,0,0,6.5-7.039A6.793,6.793,0,0,0,53,23.423a6.017,6.017,0,0,0-2.786.688.507.507,0,0,1-.481-.012.5.5,0,0,1-.248-.412A6.738,6.738,0,0,0,43,16.961a6.021,6.021,0,0,0-1.9.309A.5.5,0,0,1,40.48,17,10.521,10.521,0,0,0,31,10.5a10.666,10.666,0,0,0-10.173,8.583.5.5,0,0,1-.282.343.491.491,0,0,1-.443-.016,2.292,2.292,0,0,0-1.1-.3,2.626,2.626,0,0,0-2.5,2.731.567.567,0,0,1-.25.485.5.5,0,0,1-.507.03A7.049,7.049,0,0,0,12,21.269c-4.136,0-7.5,3.641-7.5,8.116S7.864,37.5,12,37.5Z"></path><path d="M18.277,41.584a.5.5,0,0,0-.693.139l-8,12a.5.5,0,0,0,.139.693.5.5,0,0,0,.693-.139l8-12A.5.5,0,0,0,18.277,41.584Z"></path><path d="M18,54.5a.5.5,0,0,0,.416-.223l8-12a.5.5,0,0,0-.832-.554l-8,12a.5.5,0,0,0,.139.693A.494.494,0,0,0,18,54.5Z"></path><path d="M25.723,54.416a.5.5,0,0,0,.693-.139l8-12a.5.5,0,0,0-.832-.554l-8,12A.5.5,0,0,0,25.723,54.416Z"></path><path d="M42.277,41.584a.5.5,0,0,0-.693.139l-8,12a.5.5,0,0,0,.139.693.5.5,0,0,0,.693-.139l8-12A.5.5,0,0,0,42.277,41.584Z"></path><path d="M42,54.5a.5.5,0,0,0,.416-.223l8-12a.5.5,0,0,0-.832-.554l-8,12a.5.5,0,0,0,.139.693A.494.494,0,0,0,42,54.5Z"></path></svg>