<svg height='100px' width='100px'  fill="#ffffff" xmlns="http://www.w3.org/2000/svg" xmlns:xlink="http://www.w3.org/1999/xlink" version="1.1" x="0px" y="0px" viewBox="0 0 100 100" enable-background="new 0 0 100 100" xml:space="preserve"><g display="none"><rect x="-0.582" y="-241.489" display="inline" fill="#ffffff" stroke="#ffffff" stroke-width="3.2632" stroke-linecap="round" stroke-miterlimit="10" width="1175.643" height="734.32"></rect></g><g><path d="M38.978,76.397c-2.171-0.834-4.636-1.251-7.389-1.251c-4.05,0-8.038,0.918-11.964,2.755   c-4.844,2.296-7.266,5.219-7.266,8.768c0,2.923,1.628,5.115,4.887,6.575C19.749,94.414,22.633,95,25.889,95   c4.05,0,8.038-1.191,11.96-3.571c4.469-2.713,6.705-5.949,6.705-9.707V42.954l37.449-16.596v28.057   c-2.211-0.876-4.76-1.315-7.641-1.315c-4.05,0-8.038,0.918-11.96,2.755c-4.887,2.254-7.327,5.179-7.327,8.768   c0,2.881,1.628,5.073,4.884,6.577c2.506,1.169,5.408,1.754,8.704,1.754c4.134,0,8.183-1.127,12.153-3.383   c4.549-2.629,6.825-5.843,6.825-9.644V5L38.978,26.42V76.397z"></path></g></svg>