<svg height='100px' width='100px'  fill="#ffffff" xmlns="http://www.w3.org/2000/svg" xmlns:xlink="http://www.w3.org/1999/xlink" version="1.1" x="0px" y="0px" viewBox="0 0 100 100" enable-background="new 0 0 100 100" xml:space="preserve"><path fill="#ffffff" d="M27.007,37.617c0,0,0.719-0.826,2.451-0.989c-1.128-2.775-0.692-8.103,0.682-12.599  c0.426-1.391,1.219-3.137,2.24-4.827c-1.283-0.781-4.142-1.624-5.216-5.1c-1.768-5.718,5.288-11.48,7.694-6.758  c0.943,2.543,0.469,5.479,1.875,6.771c0.283-0.204,0.569-0.383,0.855-0.536c0.17-0.09,0.344-0.17,0.52-0.237  c-0.969-1.828-0.841-4.434-0.841-4.434c-0.285-3.897-1.548-6.726-3.749-7.615c-4.67-1.887-12.07,5.527-16.528,16.56  s-4.387,21.781,0.385,23.394C20.854,42.422,24.082,40.905,27.007,37.617z M28.597,94.316l4.675-9.994  c0.544,0.014,1.059-0.323,1.245-0.866c0.231-0.672-0.125-1.403-0.797-1.636c-0.672-0.229-1.403,0.127-1.635,0.799  c-0.159,0.464-0.039,0.956,0.272,1.293l-4.667,9.977c-0.06-0.015-0.121-0.027-0.182-0.037c-1.405-0.248-2.745,0.688-2.992,2.094  c-0.248,1.404,0.69,2.746,2.096,2.992c1.404,0.248,2.744-0.689,2.992-2.095C29.78,95.846,29.359,94.882,28.597,94.316z   M28.461,97.76c-0.07,0.395-0.446,0.657-0.84,0.588c-0.395-0.07-0.658-0.445-0.588-0.84c0.07-0.395,0.446-0.658,0.84-0.588  C28.267,96.988,28.531,97.363,28.461,97.76z M25.518,64.232l-0.074,0.002c-0.002,0-0.004,0-0.007,0c0.007,0,0.013,0,0.023,0  L25.518,64.232z M25.406,64.238c0.012-0.004,0.021-0.004,0.03-0.004C25.425,64.234,25.416,64.236,25.406,64.238z M88.023,48.406  c-0.633,0-1.246,0.292-1.549,0.877c-0.186-0.048-0.388-0.075-0.605-0.075h-0.424c0.182-3.963-0.572-6.509-6.676-10.144  c-0.647-0.386-2.059-1.267-3.982-2.476c0.165-0.188,0.205-0.484-0.045-0.705c-0.289-0.256-0.643-0.29-0.965-0.184  c-0.082,0.026-0.16,0.062-0.237,0.104c-9.593-6.04-28.595-18.097-33.98-20.957c-0.055-0.043-0.113-0.082-0.174-0.116  c-0.259-0.146-0.487-0.332-0.687-0.545c-1.167,0.319-2.773,1.977-3.166,2.412c-1.794,1.989-3.567,4.886-4.435,7.724  c-1.585,5.185-1.62,10.283-0.55,12.295c0.372,0.024,0.777,0.078,1.217,0.168c0.038,0.008,0.075,0.014,0.113,0.019  c3.03,0.594,26.136,5.098,38.104,7.567c0.033,0.079,0.074,0.153,0.135,0.24c0.136,0.183,0.328,0.317,0.564,0.372  c0.312,0.072,0.525-0.114,0.594-0.344c2.539,0.528,4.434,0.939,5.311,1.16c1.57,0.396,3.807,1.354,4.073,3.217l0.001,0.196  c-2.572,0.112-2.568,3.975,0.008,4.079l0.003,1.431c0,0.928-0.741,1.684-1.665,1.7L65.62,55.91c-0.077-0.398-0.312-0.46-1.931-0.571  l-8.754-0.515c-0.326-0.021-0.599-0.318-0.822-0.67c-1.01-1.465-2.701-2.424-4.617-2.424c-3.097,0-5.608,2.512-5.608,5.606  c0,0.528,0.073,1.038,0.208,1.522c-9.31,0.377-16.32,2.039-16.32,4.031c0,0.469,0.39,0.922,1.108,1.342h-3.321h-0.104l-0.053,0.006  c-0.273,0.033-0.375,0.193-0.406,0.26l-3.167,5.312l-0.266,0.435c-0.104,0.179-0.092,0.421,0.034,0.585  c-0.007,0.003,0.16,0.164,0.243,0.245l2.478,2.634v10.82l-2.668,5.023c-0.147,0.197-0.132,0.504,0.043,0.68  c0.01,0.02,2.927,2.342,2.927,2.342c0.106,0.064,0.157,0.107,0.312,0.107h2.749l1.556-3.313h-6.353l1.434-2.701V87.4  c0,0.267,0.235,0.5,0.501,0.5h5.106l0.927-1.975h-3.13c-0.513,0-0.133-1.115-1.134-1.115c-0.158,0-0.295-0.139-0.295-0.295v-7.894  c0-0.157,0.137-0.295,0.295-0.295c0.457,0,0.829-0.366,0.839-0.821c0.003-0.15,0.142-0.287,0.294-0.287L68.8,75.098  c0.251-0.002,0.291,0.201,0.291,0.393c0,0.464,0.376,0.84,0.841,0.84c0.156,0,0.295,0.139,0.295,0.295l0.004,7.893  c0,0.157-0.138,0.295-0.295,0.295c-1.01,0-0.625,1.117-1.139,1.117H35.674c0.211-0.175,0.403-0.371,0.573-0.591h32.289  c0.122-0.545,0.555-0.971,1.104-1.086l-0.006-7.362c-0.585-0.123-1.037-0.604-1.121-1.203l-40.53,0.123  c-0.124,0.541-0.553,0.965-1.099,1.08v7.363c0.547,0.114,0.979,0.541,1.1,1.085h2.364c0.155,0.2,0.331,0.386,0.525,0.552  l0.448-0.955c-0.683-0.715-0.952-1.777-0.608-2.776c0.492-1.427,2.045-2.185,3.472-1.692c1.426,0.49,2.185,2.045,1.694,3.473  c-0.408,1.184-1.547,1.906-2.738,1.838l-0.999,2.127h39.561c0.267,0,0.5-0.233,0.5-0.5v-1.051l1.603,3.019H31.456l-1.557,3.313  H71.76c0.16,0,0.284-0.088,0.312-0.108c0,0,2.906-2.317,2.919-2.333c0.034-0.033,0.062-0.07,0.085-0.11  c0.07-0.11,0.099-0.25,0.048-0.401c-0.015-0.053-2.045-3.873-2.67-5.047C82.546,82.641,83.473,74.371,83.473,71.7  c0-4.771,6.299-4.267,6.299-8.925V50.153C89.771,48.986,88.916,48.406,88.023,48.406z M34.514,79.518  c-1.424-0.49-2.942-0.07-3.918,0.953c0.024-0.164,0.063-0.328,0.12-0.49c0.492-1.426,2.045-2.185,3.472-1.693  c0.999,0.345,1.668,1.208,1.814,2.186C35.601,80.051,35.099,79.719,34.514,79.518z M71.132,39.167  C59.988,33.084,42.315,24.209,33.975,19.97c1.227-2.044,2.765-4.101,4.161-4.852c2.916,1.608,10.531,6.205,18.395,11.125  c6.001,3.754,12.098,7.612,16.244,10.222c-0.342,0.392-0.688,0.908-1.012,1.478C71.546,38.325,71.332,38.739,71.132,39.167z   M72.014,39.649c0.195-0.424,0.406-0.835,0.623-1.214c0.323-0.568,0.648-1.042,0.942-1.369l0.058-0.061  c1.891,1.188,3.276,2.052,3.918,2.434c5.707,3.399,5.98,5.427,5.803,8.791v0.977h-1.238l-0.003-1.465l-0.019-0.123  c-0.143-0.991-0.598-1.781-1.16-2.398C80.493,44.492,76.996,42.39,72.014,39.649z M80.398,51.092c-0.668,0-0.668-1.002,0-1.002  h5.301c0.669,0,0.669,1.002,0,1.002H80.398z M65.605,57.372l13.072,0.51c1.875-0.038,3.449-1.243,3.449-3.146l-0.003-1.443h1.229  v1.445c0,2.568-2.115,4.681-4.711,4.697l-13.076-0.512L65.605,57.372z M64.738,55.871c0.629,0.076,0.625,0.302,0.666,0.626  l0.021,0.964c-0.041-0.324-0.111-0.577-0.738-0.654l-1.076-0.031c-0.403-0.227-0.871-0.356-1.368-0.356  c-0.44,0-0.858,0.103-1.229,0.286l-5.966-0.167c-0.062-0.431-0.173-0.845-0.325-1.237L64.738,55.871z M60.751,58.396  c0.289-0.528,0.849-0.888,1.492-0.888c0.938,0,1.698,0.761,1.698,1.699c0,0.099-0.008,0.192-0.022,0.285L60.751,58.396z   M63.721,60.048c-0.291,0.513-0.845,0.858-1.478,0.858c-0.938,0-1.698-0.762-1.698-1.698c0-0.086,0.008-0.171,0.02-0.254  L63.721,60.048z M54.281,60.824l0.566,0.018c3.291,0.439,5.461,1.193,5.461,2.051c0,1.356-5.445,2.455-12.164,2.455  s-12.163-1.099-12.163-2.455c0-1.129,3.766-2.08,8.913-2.348c-4.601,0.307-7.95,1.24-7.95,2.348c0,1.354,5.015,2.451,11.201,2.451  s11.2-1.099,11.2-2.451c0-0.867-2.057-1.629-5.16-2.064C54.217,60.824,54.249,60.822,54.281,60.824z M58.503,62.893  c0,1.154-4.638,2.092-10.358,2.092s-10.357-0.938-10.357-2.092c0-0.945,3.104-1.744,7.382-1.983  c-3.81,0.272-6.563,1.058-6.563,1.983c0,1.151,4.27,2.086,9.538,2.086c5.267,0,9.539-0.935,9.539-2.086  c0-0.711-1.621-1.338-4.099-1.715l0.056-0.06C56.561,61.488,58.503,62.145,58.503,62.893z M46.862,64.305  c-3.315-0.123-5.828-0.707-5.828-1.412c0-0.627,1.98-1.158,4.761-1.342c-2.456,0.207-4.198,0.73-4.198,1.342  C41.597,63.587,43.858,64.169,46.862,64.305z M40.298,62.893c0,0.883,3.044,1.609,6.985,1.711c-4.301-0.086-7.659-0.819-7.659-1.711  c0-0.764,2.457-1.41,5.877-1.617C42.469,61.512,40.298,62.146,40.298,62.893z M47.371,63.05l0.225-0.708  c-0.091-0.113-0.13-0.271-0.071-0.457l1.071-3.376c0.25,0.192,0.562,0.308,0.9,0.308l0.055-0.002l-1.071,3.373  c-0.059,0.188-0.183,0.293-0.322,0.334l-0.225,0.707c-0.039,0.123-0.125,0.186-0.219,0.201l-0.159,0.502  c-0.06,0.188-0.34,0.1-0.281-0.088l0.16-0.503C47.365,63.271,47.332,63.172,47.371,63.05z M52.799,61.882l0.084-0.062  c1.457,0.263,2.373,0.646,2.373,1.072c0,0.787-3.148,1.428-7.047,1.436c3.587-0.008,6.484-0.648,6.484-1.436  C54.693,62.499,53.971,62.143,52.799,61.882z M53.188,61.576l0.07-0.062c2.069,0.314,3.408,0.813,3.408,1.377  c0,0.95-3.814,1.721-8.521,1.721c-0.216,0-0.431,0-0.643-0.004l0.022-0.004c0.205,0.002,0.412,0.006,0.621,0.006  c4.333,0,7.847-0.771,7.847-1.719C55.992,62.363,54.902,61.893,53.188,61.576z M49.497,52.732c2.544,0,4.604,2.062,4.604,4.604  c0,2.544-2.061,4.606-4.604,4.606c-0.118,0-0.233-0.004-0.349-0.014l1.045-3.291c0.464-0.248,0.78-0.738,0.78-1.303  c0-0.814-0.662-1.477-1.478-1.477c-0.815,0-1.477,0.66-1.477,1.477c0,0.234,0.055,0.458,0.154,0.656l-1.047,3.295  c-1.339-0.807-2.235-2.273-2.235-3.951C44.89,54.795,46.953,52.732,49.497,52.732z M35.063,62.893c0,1.58,5.857,2.862,13.083,2.862  s13.083-1.282,13.083-2.862c0-0.763-1.357-1.453-3.571-1.965l0.971,0.028c2.313,0.51,3.726,1.188,3.726,1.937  c0,1.584-6.359,2.869-14.207,2.869S33.94,64.477,33.94,62.893c0-1.34,4.541-2.465,10.694-2.76  C39.113,60.469,35.063,61.576,35.063,62.893z M32.936,62.893c0,1.838,6.81,3.328,15.21,3.328c8.399,0,15.209-1.49,15.209-3.328  c0-0.354-0.252-0.693-0.717-1.013c0.284-0.042,0.553-0.127,0.801-0.25c0.787,0.39,1.223,0.815,1.223,1.263  c0,1.842-7.395,3.336-16.516,3.336c-9.123,0-16.517-1.494-16.517-3.336c0-1.58,5.444-2.904,12.763-3.228  C37.807,60.031,32.936,61.337,32.936,62.893z M44.206,59.202c-7.661,0.392-13.368,1.896-13.368,3.69  c0,2.09,7.749,3.787,17.309,3.787c9.559,0,17.308-1.697,17.308-3.787c0-0.56-0.551-1.088-1.537-1.564  c0.083-0.064,0.163-0.137,0.236-0.212c0.213-0.003,0.39-0.011,0.537-0.027c1.437,0.536,2.252,1.149,2.252,1.804  c0,2.096-8.416,3.795-18.796,3.795c-10.381,0-18.797-1.699-18.797-3.795C29.349,61.068,35.712,59.546,44.206,59.202z M67.259,64.316  l0.001,1.681c0,1.772-8.461,3.212-18.899,3.212s-18.9-1.438-18.9-3.212l0.004-1.463c3.14,1.454,10.322,2.472,18.682,2.472  C56.915,67.006,64.391,65.887,67.259,64.316z M71.488,73.07h-46.39l-1.937-2.059H73.42L71.488,73.07z M82.712,62.979  c-0.2,0.004-0.39,0.012-0.56,0.027c-1.783,0.17-3.588,0.87-3.588,5.055c0,2,0.199,4.896-0.703,6.729  c-0.803,1.626-2.452,2.646-5.656,3.181v-0.597c1.934-0.324,4.195-0.957,5.127-2.845c0.197-0.402,0.339-0.873,0.438-1.383  c-0.658,1.219-2.16,2.254-5.563,2.817V73.77l2.724-2.933l0.041-0.06c0.041-0.069,0.063-0.15,0.068-0.237  c0.002-0.019,0.002-0.035,0.001-0.054c-0.002-0.131-0.043-0.268-0.118-0.385c-0.035-0.07-0.08-0.147-0.135-0.231l-3.143-5.272  l-0.031-0.052l-0.061-0.096c-0.044-0.062-0.094-0.125-0.137-0.158c-0.053-0.04-0.165-0.054-0.254-0.058h-0.051h-0.045h-3.659  c0.719-0.422,1.108-0.873,1.108-1.344c0-0.793-1.111-1.535-3.037-2.162l0.021-0.057l13.424,0.512c0.371,0,0.734-0.029,1.09-0.09  l2.762,0.096L82.712,62.979z M86.275,61.182c0,1.678-1.631,1.772-3.018,1.791l0.061-1.764l0.695,0.023l0.092-2.606  c0.834-1.085,1.33-2.438,1.33-3.907v-1.427h0.434c0.143,0,0.277-0.011,0.406-0.033V61.182z"></path></svg>