<svg height='100px' width='100px'  fill="#ffffff" xmlns="http://www.w3.org/2000/svg" xmlns:xlink="http://www.w3.org/1999/xlink" viewBox="0 0 100 100" version="1.1" xml:space="preserve" x="0px" y="0px"><g><path d="M 26.5605 53.8789 C 26.5605 53.8789 53.5285 48.5779 73.1715 53.8789 C 73.1715 41.3837 80.7326 36.2089 80.7326 34.1894 C 80.7326 21.0631 70.9031 14.5 52.0003 14.5 L 47.7317 14.5 C 28.8288 14.5 18.9994 21.0631 18.9994 34.1894 C 18.9994 36.2089 26.5605 41.1943 26.5605 53.8789 ZM 26.5605 57.9372 L 26.5605 87.1995 L 73.4395 87.1995 L 73.4395 57.9372 C 47.1667 55 26.5605 57.9372 26.5605 57.9372 ZM 87.3443 89.3165 C 93.5141 63.7384 103.012 38.7332 85.3898 38.7332 C 74.1232 38.7332 76.7232 62.0699 76.7232 89.3165 C 76.7232 89.3165 82.6074 89.282 87.3443 89.3165 ZM 12.6557 89.3165 C 12.5724 89.0927 23.3228 89.6262 23.158 89.4713 C 23.158 62.2247 25.8768 38.7332 14.6102 38.7332 C -3.0119 38.7332 6.4859 63.7384 12.6557 89.3165 Z" fill="#ffffff"></path></g></svg>