<svg height='100px' width='100px'  xmlns:dc="http://purl.org/dc/elements/1.1/" xmlns:cc="http://creativecommons.org/ns#" xmlns:rdf="http://www.w3.org/1999/02/22-rdf-syntax-ns#" xmlns:svg="http://www.w3.org/2000/svg" xmlns="http://www.w3.org/2000/svg" xmlns:sodipodi="http://sodipodi.sourceforge.net/DTD/sodipodi-0.dtd" xmlns:inkscape="http://www.inkscape.org/namespaces/inkscape" fill="#ffffff" version="1.1" x="0px" y="0px" viewBox="0 0 100 100"><path style="font-size:medium;font-style:normal;font-variant:normal;font-weight:normal;font-stretch:normal;text-indent:0;text-align:start;text-decoration:none;line-height:normal;letter-spacing:normal;word-spacing:normal;text-transform:none;direction:ltr;block-progression:tb;writing-mode:lr-tb;text-anchor:start;baseline-shift:baseline;opacity:1;color:#000000;fill:#ffffff;fill-opacity:1;stroke:none;stroke-width:4;marker:none;visibility:visible;display:inline;overflow:visible;enable-background:accumulate;font-family:Sans;-inkscape-font-specification:Sans" d="M 49.78125 5.96875 A 2.0002 2.0002 0 0 0 48 8 L 48 14 A 2.0002 2.0002 0 1 0 52 14 L 52 8 A 2.0002 2.0002 0 0 0 49.96875 5.96875 A 2.0002 2.0002 0 0 0 49.78125 5.96875 z M 22.78125 14.96875 A 2.0002 2.0002 0 0 0 21.4375 18.28125 L 30.4375 29.28125 A 2.0206454 2.0206454 0 1 0 33.5625 26.71875 L 24.5625 15.71875 A 2.0002 2.0002 0 0 0 22.96875 14.96875 A 2.0002 2.0002 0 0 0 22.78125 14.96875 z M 76.78125 14.96875 A 2.0002 2.0002 0 0 0 75.4375 15.71875 L 66.4375 26.71875 A 2.0206454 2.0206454 0 1 0 69.5625 29.28125 L 78.5625 18.28125 A 2.0002 2.0002 0 0 0 76.96875 14.96875 A 2.0002 2.0002 0 0 0 76.78125 14.96875 z M 50 29 C 45.581724 29 42 32.581772 42 37 C 42 41.418308 45.581724 45 50 45 C 54.418281 45 58 41.418308 58 37 C 58 32.581772 54.418281 29 50 29 z M 91.09375 38.96875 A 2.0020741 2.0020741 0 0 0 90.8125 39 A 2.0002 2.0002 0 0 0 90.65625 39.03125 L 84.65625 40.03125 A 2.0002 2.0002 0 1 0 85.34375 43.96875 L 91.34375 42.96875 A 2.0020741 2.0020741 0 0 0 91.09375 38.96875 z M 8.71875 39 A 2.0002 2.0002 0 0 0 8.65625 42.96875 L 14.65625 43.96875 A 2.0002 2.0002 0 1 0 15.34375 40.03125 L 9.34375 39.03125 A 2.0002 2.0002 0 0 0 8.71875 39 z M 50 47 C 40.611163 47 33 54.163532 33 63 L 67 63 C 67 54.163532 59.388848 47 50 47 z M 74.875 58.96875 A 2.0002 2.0002 0 0 0 74.65625 59 A 2.0002 2.0002 0 0 0 74.15625 62.8125 L 87.15625 68.8125 A 2.0002 2.0002 0 1 0 88.84375 65.1875 L 75.84375 59.1875 A 2.0002 2.0002 0 0 0 74.875 58.96875 z M 24.875 59 A 2.0002 2.0002 0 0 0 24.15625 59.1875 L 11.15625 65.1875 A 2.0002 2.0002 0 1 0 12.84375 68.8125 L 25.84375 62.8125 A 2.0002 2.0002 0 0 0 24.875 59 z M 49.78125 75.96875 A 2.0002 2.0002 0 0 0 48 78 L 48 92 A 2.0002 2.0002 0 1 0 52 92 L 52 78 A 2.0002 2.0002 0 0 0 49.96875 75.96875 A 2.0002 2.0002 0 0 0 49.78125 75.96875 z M 29.875 77.96875 A 2.0002 2.0002 0 0 0 28.28125 78.96875 L 25.28125 83.96875 A 2.0043897 2.0043897 0 0 0 28.71875 86.03125 L 31.71875 81.03125 A 2.0002 2.0002 0 0 0 29.875 77.96875 z M 69.875 77.96875 A 2.0002 2.0002 0 0 0 68.28125 81.03125 L 71.28125 86.03125 A 2.0043897 2.0043897 0 0 0 74.71875 83.96875 L 71.71875 78.96875 A 2.0002 2.0002 0 0 0 69.875 77.96875 z "></path></svg>