<svg height='100px' width='100px'  fill="#ffffff" xmlns="http://www.w3.org/2000/svg" xmlns:xlink="http://www.w3.org/1999/xlink" version="1.1" x="0px" y="0px" viewBox="0 0 95 95" enable-background="new 0 0 95 95" xml:space="preserve"><g><path d="M14.991,80.199h2.122c0.375,2.033,2.154,3.575,4.297,3.575h46.693c2.142,0,3.921-1.542,4.296-3.575h2.122   c0.771,0,1.396-0.625,1.396-1.396s-0.625-1.396-1.396-1.396H58.576c4.631-2.182,8.158-6.32,9.496-11.357h4.454   c4.896,0,8.878-3.983,8.878-8.879c0-4.895-3.982-8.877-8.878-8.877h-3.865v-5.023H18.944v18.265   c0,7.014,4.117,13.063,10.064,15.872H14.991c-0.771,0-1.396,0.625-1.396,1.396S14.221,80.199,14.991,80.199z M68.661,53.595h3.865   c1.973,0,3.577,1.605,3.577,3.577c0,1.974-1.604,3.578-3.577,3.578h-3.865V53.595z"></path><path d="M36.242,41.48c0,0,10.056-3.782,5.676-12.241c-4.379-8.46-2.985-12.241-2.985-12.241s-9.544,3.107-2.786,13.534   C41.861,39.353,36.242,41.48,36.242,41.48z"></path><path d="M46.875,41.48c0,0,11.112-4.674,6.272-15.128c-4.839-10.453-3.299-15.127-3.299-15.127s-9.906,3.555-3.079,16.727   C52.54,39.088,46.875,41.48,46.875,41.48z"></path></g></svg>