<svg height='100px' width='100px'  fill="#ffffff" xmlns="http://www.w3.org/2000/svg" xmlns:xlink="http://www.w3.org/1999/xlink" version="1.1" x="0px" y="0px" viewBox="0 0 100 100" enable-background="new 0 0 100 100" xml:space="preserve"><g><path d="M49.973,91.145c-19.368,0-35.125-15.757-35.125-35.124c0-19.368,15.757-35.125,35.125-35.125s35.124,15.756,35.124,35.125   C85.097,75.388,69.34,91.145,49.973,91.145z M49.973,25.832c-16.646,0-30.19,13.542-30.19,30.189   c0,16.646,13.543,30.189,30.19,30.189s30.189-13.543,30.189-30.189C80.162,39.374,66.619,25.832,49.973,25.832z"></path><rect x="47" y="24" width="6" height="65"></rect><rect x="16" y="54" width="67" height="5"></rect><rect x="21" y="37" width="57" height="6"></rect><rect x="21" y="70" width="57" height="5"></rect><path d="M51.962,90.12c0.006-0.006,0.15-0.174,0.275-0.462l-4.529-1.96c0.295-0.682,0.739-1.088,2.393-2.604   c2.814-2.579,8.668-7.942,11.157-13.005c1.22-2.481,3.087-8.524,3.237-15.001c0.123-5.327-1.337-11.23-2.622-15.778   c-1.775-6.285-11.227-14.879-12.861-15.708l2.074-4.478c2.349,1.08,13.208,10.604,15.535,18.843   c1.38,4.88,2.944,11.25,2.807,17.234c-0.18,7.843-2.526,14.592-3.741,17.064c-2.897,5.897-8.982,11.472-12.252,14.467   C52.821,89.295,52.125,89.933,51.962,90.12z"></path><path d="M48.892,90.919c-2.349-1.08-13.208-10.604-15.536-18.843c-1.379-4.88-2.944-11.25-2.807-17.233   c0.181-7.843,2.526-14.592,3.742-17.064c2.898-5.897,8.983-11.472,12.252-14.467c0.614-0.562,1.31-1.2,1.473-1.387   c-0.006,0.006-0.151,0.175-0.275,0.462l4.529,1.96c-0.295,0.682-0.739,1.089-2.393,2.604c-2.814,2.578-8.668,7.942-11.157,13.005   c-1.219,2.481-3.087,8.524-3.236,15.001c-0.123,5.326,1.336,11.23,2.621,15.778c1.776,6.285,11.227,14.878,12.861,15.707   L48.892,90.919z"></path></g><g><path d="M55.527,23.418c0,1.391-1.128,2.519-2.519,2.519h-5.489c-1.391,0-2.519-1.128-2.519-2.519V11.469   c0-1.391,1.128-2.519,2.519-2.519h5.489c1.391,0,2.519,1.128,2.519,2.519V23.418z"></path></g></svg>