<svg height='100px' width='100px'  fill="#ffffff" xmlns="http://www.w3.org/2000/svg" xmlns:xlink="http://www.w3.org/1999/xlink" version="1.1" x="0px" y="0px" viewBox="0 0 32 32" style="enable-background:new 0 0 32 32;" xml:space="preserve"><g><path d="M14.39,22.9c0,0,0.01,0.01,0.01,0.01c0.1,0.1,0.21,0.19,0.33,0.27c0.04,0.03,0.08,0.04,0.12,0.07   c0.09,0.05,0.17,0.1,0.27,0.14c0.05,0.02,0.11,0.03,0.16,0.05c0.09,0.03,0.17,0.06,0.26,0.08c0.15,0.03,0.3,0.05,0.45,0.05   c0.15,0,0.3-0.02,0.45-0.05c0.09-0.02,0.18-0.05,0.27-0.08c0.05-0.02,0.11-0.03,0.16-0.05c0.1-0.04,0.19-0.1,0.28-0.15   c0.04-0.02,0.07-0.04,0.11-0.06c0.12-0.08,0.24-0.18,0.34-0.28l6.72-6.72c0.89-0.89,0.89-2.32,0-3.21c-0.89-0.89-2.32-0.89-3.21,0   l-2.85,2.85V4.27C18.27,3.02,17.25,2,16,2s-2.27,1.02-2.27,2.27v11.54l-2.85-2.85c-0.89-0.89-2.32-0.89-3.21,0   c-0.89,0.89-0.89,2.32,0,3.21L14.39,22.9z"></path><path d="M24.62,25.46H7.38c-1.25,0-2.27,1.02-2.27,2.27S6.12,30,7.38,30h17.25c1.25,0,2.27-1.02,2.27-2.27S25.88,25.46,24.62,25.46   z"></path></g></svg>