<svg width="372" height="372" viewBox="0 0 372 372" fill="none" xmlns="http://www.w3.org/2000/svg">
<path d="M360.505 304.955C361.126 305.044 361.145 306.052 360.922 306.595C360.546 306.167 360.297 305.613 360.505 304.955Z" fill="white"/>
<path d="M353.3 158.026C354.285 165.686 350.521 174.811 349.516 184.502C347.723 201.863 353.932 218.049 350.461 230.838C347.95 240.134 335.83 248.969 330.608 262.038C327.274 270.367 327.531 278.725 323.99 284.737C319.128 292.98 306.286 298.973 297.514 306.477C280.774 320.814 271.854 340.28 244.568 342.412C240.636 342.289 244.374 341.798 244.568 340.522C263.078 333.287 262.379 319.311 268.205 296.079C271.686 282.207 280.752 269.113 274.822 253.53C270.827 243.032 258.053 240.677 254.016 229.893C252.112 224.793 253.689 218.681 252.127 213.819C246.104 195.078 220.603 197.045 200.125 192.072C183.095 187.95 168.04 180.22 153.792 188.289C147.799 191.692 144.593 199.549 139.612 204.363C130.137 213.547 105.213 223.695 103.684 240.294C103.301 244.442 104.911 250.401 104.629 257.313C103.948 273.763 97.5086 284.517 99.9006 295.131C101.961 304.256 110.35 310.941 115.971 318.771C121.61 326.613 127.265 333.636 130.155 342.408C95.1241 339.998 85.9617 310.762 64.914 292.289C51.9014 280.876 40.7191 277.561 34.6555 260.144C31.5642 251.242 31.4005 236.928 28.9862 224.213C27.8516 218.227 26.9588 212.774 25.203 207.194C21.4383 195.263 15.7207 180.03 20.4749 163.699C22.346 157.286 27.2006 152.409 29.9311 145.732C33.8259 136.22 32.8736 124.941 35.6041 115.473C37.7022 108.212 45.0231 96.6761 49.7847 91.8363C53.5047 88.0717 60.1896 85.7951 64.914 81.4352C77.1119 70.2008 81.5052 53.3976 91.3892 46.4523C98.141 41.7168 111.314 40.106 123.537 36.0512C140.746 30.3596 151.452 19.0508 171.764 19.0322C180.52 19.0322 191.799 22.3207 202.967 22.8117C212.546 23.2358 222.538 22.2277 229.442 23.7566C239.326 25.97 249.355 36.0215 260.649 40.7756C275.481 47.0438 283.676 45.5521 292.797 56.846C295.387 60.0638 296.77 63.9103 299.412 67.2509C308.265 78.4518 324.801 84.1099 330.619 97.5093C333.557 104.306 333.762 115.086 337.237 123.981C342.623 137.819 352.053 148.325 353.3 158.026Z" fill="white"/>
<path d="M266.873 266.234C268.178 269.396 264.105 267.183 264.782 269.716C263.919 289.153 251.271 306.473 230.61 299.011C219.264 294.908 203.052 276.747 199.228 265.531C197.461 260.356 198.287 255.204 196.438 251.585C192.848 248.951 187.7 249.557 183.188 250.893C181.346 255.041 182.485 259.304 181.097 264.143C177.31 277.353 157.91 299.193 142.048 301.105C125.319 303.107 112.53 290.946 112.061 269.716C112.18 267.744 107.501 270.56 108.572 267.625C107.166 264.132 111.745 266.617 112.061 264.843C113.259 232.263 156.046 244.535 188.768 244.621C205.065 244.662 222.099 240.715 237.581 241.823C251.669 242.832 263.926 248.103 264.083 262.748C263.171 265.754 267.405 263.611 266.873 266.234Z" fill="white"/>
</svg>
