<svg height='100px' width='100px'  fill="#ffffff" xmlns="http://www.w3.org/2000/svg" xmlns:xlink="http://www.w3.org/1999/xlink" version="1.1" x="0px" y="0px" viewBox="0 0 60 100" enable-background="new 0 0 60 100" xml:space="preserve"><path fill="none" d="M51.346,6H8.654C7.188,6,6,7.188,6,8.655v34.69C6,44.812,7.188,46,8.654,46h42.691  C52.812,46,54,44.812,54,43.345V8.655C54,7.188,52.812,6,51.346,6z"></path><circle cx="29.234" cy="71.851" r="8.282"></circle><path d="M57.514,0H2.486C1.113,0,0,1.113,0,2.486v95.027C0,98.887,1.113,100,2.486,100h55.027C58.887,100,60,98.887,60,97.514V2.486  C60,1.113,58.887,0,57.514,0z M29.235,91.029c-10.596,0-19.181-8.588-19.181-19.179c0-10.592,8.585-19.179,19.181-19.179  c10.588,0,19.178,8.587,19.178,19.179C48.413,82.441,39.823,91.029,29.235,91.029z M54,43.345C54,44.812,52.812,46,51.346,46H8.654  C7.188,46,6,44.812,6,43.345V8.655C6,7.188,7.188,6,8.654,6h42.691C52.812,6,54,7.188,54,8.655V43.345z"></path></svg>