<svg height='100px' width='100px'  fill="#ffffff" xmlns="http://www.w3.org/2000/svg" xmlns:xlink="http://www.w3.org/1999/xlink" version="1.1" x="0px" y="0px" viewBox="0 0 100.0 100"><path d="M1142,1140 l-72,-173 l-182,-20 c-11,-2,-13,-9,-3,-16 l140,-111 l-50,-181 c-3,-13,3,-18,13,-11 l162,101 l152,-101 c9,-7,16,-1,13,10 l-40,182 l140,111 c10,7,8,14,-3,16 l-182,20 l-72,173 c-4,10,-12,10,-16,0 Z M1000,260 l-280,150 c-52,28,-75,58,-75,85 c0,65,130,157,130,385 c0,190,-101,320,-274,320 c-192,0,-276,-160,-276,-321 c0,-212,127,-308,127,-379 c0,-28,-19,-62,-72,-90 l-280,-150 c-99,-53,-50,-260,-50,-260 l1100,0 c0,0,48,207,-50,260 Z M1000,260 " fill="#ffffff" stroke="none" stroke-dasharray="none" stroke-linecap="inherit" stroke-linejoin="inherit" stroke-width="1" transform="matrix(0.05,0.0,0.0,-0.05,20.0,80.0)"></path></svg>