<svg height='100px' width='100px'  fill="#ffffff" xmlns="http://www.w3.org/2000/svg" xmlns:xlink="http://www.w3.org/1999/xlink" version="1.1" x="0px" y="0px" viewBox="0 0 110 110" enable-background="new 0 0 110 110" xml:space="preserve"><g><polygon points="86.179,49.419 71.194,26.273 30.062,52.903 80.798,52.903  "></polygon><path d="M102.368,46.439c-0.431-0.664-1.316-0.854-1.98-0.425c0.664-0.43,0.853-1.316,0.423-1.98   c-0.431-0.664-1.315-0.854-1.979-0.424c0.664-0.43,0.854-1.315,0.424-1.979c-0.431-0.664-1.316-0.854-1.98-0.425   c0.664-0.43,0.853-1.316,0.423-1.98c-0.431-0.664-1.315-0.854-1.979-0.424c0.664-0.43,0.854-1.315,0.424-1.979   s-1.316-0.854-1.98-0.425l-0.002,0l-0.057-0.089c-3.287,2.128-7.676,1.188-9.803-2.098c-2.127-3.285-1.189-7.674,2.098-9.802   l-0.057-0.089v0c0.664-0.43,0.854-1.316,0.424-1.98s-1.316-0.854-1.98-0.424c0.664-0.43,0.854-1.316,0.424-1.98   s-1.316-0.854-1.98-0.424c0.664-0.43,0.854-1.316,0.424-1.98s-1.316-0.854-1.98-0.424c0.664-0.43,0.854-1.316,0.424-1.98   s-1.316-0.854-1.98-0.424c0.664-0.43,0.854-1.316,0.424-1.98c-0.43-0.664-1.316-0.854-1.98-0.425v0L15.837,52.903h10.544   l45.405-29.396l17.158,26.503l-4.467,2.892h10.54l6.925-4.483l0.002,0C102.608,47.989,102.798,47.104,102.368,46.439z"></path><polygon points="65.769,62.633 30.404,62.633 28.021,62.633 22.61,62.633 22.61,67.639 22.61,90.205 30.209,90.205 37.4,90.205    76.61,90.205 76.61,64.82 76.61,62.633 69.448,62.633  "></polygon><path d="M91.819,56.334c0-0.419-0.184-0.793-0.472-1.056c-0.253-0.23-0.586-0.374-0.955-0.375h-9.005h-3.68H26.972h-3.681H12.748   H9.445v0H8.834c-0.791,0-1.432,0.641-1.432,1.432c0,0.791,0.641,1.433,1.432,1.433c-0.791,0-1.432,0.642-1.432,1.433   s0.641,1.432,1.432,1.432c-0.791,0-1.432,0.641-1.432,1.432s0.641,1.433,1.432,1.433c-0.791,0-1.432,0.642-1.432,1.433   s0.641,1.432,1.432,1.432c-0.791,0-1.432,0.641-1.432,1.432s0.641,1.433,1.432,1.433v0.106c3.915,0,7.089,3.174,7.089,7.088   c0,3.915-3.174,7.089-7.089,7.089v0.105c-0.791,0-1.432,0.642-1.432,1.433s0.641,1.432,1.432,1.432   c-0.791,0-1.432,0.641-1.432,1.432s0.641,1.433,1.432,1.433c-0.791,0-1.432,0.642-1.432,1.433s0.641,1.432,1.432,1.432   c-0.791,0-1.432,0.641-1.432,1.432s0.641,1.433,1.432,1.433c-0.791,0-1.432,0.642-1.432,1.433s0.641,1.432,1.432,1.432h81.553   h0.001c0.791,0,1.432-0.641,1.432-1.432s-0.641-1.433-1.432-1.433c0.791,0,1.432-0.642,1.432-1.433s-0.641-1.432-1.432-1.432   c0.791,0,1.432-0.641,1.432-1.432s-0.641-1.433-1.432-1.433c0.791,0,1.432-0.642,1.432-1.433s-0.641-1.432-1.432-1.432   c0.791,0,1.432-0.641,1.432-1.432s-0.641-1.433-1.432-1.433h-0.001v-0.105c-3.916-0.001-7.089-3.174-7.089-7.089   c0-3.914,3.173-7.088,7.089-7.088v-0.106h0.001c0.791,0,1.432-0.642,1.432-1.433s-0.641-1.432-1.432-1.432   c0.791,0,1.432-0.641,1.432-1.432s-0.641-1.433-1.432-1.433c0.791,0,1.432-0.642,1.432-1.433s-0.641-1.432-1.432-1.432   c0.791,0,1.432-0.641,1.432-1.432s-0.641-1.433-1.432-1.433C91.179,57.767,91.819,57.125,91.819,56.334z M78.61,92.205H34.311   h-2.863H20.61V67.69v-7.058h6.117h2.382h39.749h3.68h6.072v2.893V92.205z"></path></g></svg>