<svg height='100px' width='100px'  fill="#ffffff" xmlns="http://www.w3.org/2000/svg" xmlns:xlink="http://www.w3.org/1999/xlink" version="1.1" x="0px" y="0px" viewBox="0 0 100 100" enable-background="new 0 0 100 100" xml:space="preserve"><path d="M82.207,47.956L82.207,47.956c-6.633-6.63-17.424-6.632-24.054,0c-4.422,4.419-11.616,4.419-16.037,0  c-6.632-6.632-17.422-6.631-24.054,0c-2.141,2.141-4.987,3.32-8.013,3.32c-0.001,0-0.002,0-0.003,0l-0.002,5.67  c0.002,0,0.003,0,0.005,0c4.54,0,8.81-1.77,12.021-4.981l0,0.001c4.421-4.421,11.615-4.42,16.037,0  c3.316,3.315,7.671,4.973,12.027,4.973c4.355,0,8.711-1.657,12.026-4.972c4.423-4.421,11.616-4.42,16.036,0l0,0  c3.212,3.212,7.483,4.981,12.026,4.981v-5.67C87.194,51.276,84.348,50.098,82.207,47.956z"></path></svg>