<svg height='100px' width='100px'  fill="#ffffff" xmlns="http://www.w3.org/2000/svg" xmlns:xlink="http://www.w3.org/1999/xlink" version="1.1" x="0px" y="0px" viewBox="0 0 1024 1024" style="enable-background:new 0 0 1024 1024;" xml:space="preserve"><g><path d="M206.3,554.1c-2.9,0-5.9,0.1-8.9,0c-10.1-0.2-19.3-3.6-26.8-10.4c-8.5-7.7-12.3-18.8-12.3-30.1   c-0.1-29.4,0-58.8,0-88.2V58.3H97.8c-3,0-6-0.1-9,0.2c-28.4,2.5-50.2,25.4-50.5,54.1c-0.1,9.7,0,19.3,0,29v764.3   c0,2.9-0.1,5.8,0.1,8.7c2.1,28.7,25.3,50.8,54.2,51.2c9.2,0.1,18.5,0,27.7,0h92.6c0-5,0.1-10,0.1-15c0.1-5,0.1-10,0.1-15V554.1   H206.3z"></path><path d="M482,554.1v381.6c0,5,0,10,0,15c0,5,0,10,0,15H273V595.1c0-13.6,0.1-27.3,0-40.9h13.7c0.3,0,0.5,0,0.8,0   c0.3,0,0.6,0,0.9,0h0.1c20.9-1.1,37.2-17.5,37.7-38.7c0-1.4,0-2.8,0-4.2V97.7c0-3.1,0-6.3,0-9.4c0-5,0.1-10,0.1-15   c0-5,0.1-10,0.1-15H428v367.1c0,29.4-0.1,58.8,0,88.2c0,11.3,3.7,22.3,12.3,30.1c7.5,6.8,16.8,10.2,26.9,10.4c3,0.1,5.9,0,8.9,0   H482z"></path><path d="M985.7,136.5c0-8.1,0.1-16.2,0-24.2c-0.5-29.8-24.4-53.6-54.2-54c-2.7,0-5.3,0-8,0H866c0,5,0,10-0.1,15   c-0.1,5-0.1,10-0.1,15c0,3.1,0,6.3,0,9.4v413.5c0,1.4,0,2.8,0,4.2c-0.5,21.1-16.8,37.6-37.7,38.7h-0.1c-0.3,0-0.6,0-0.9,0   c-0.3,0-0.5,0-0.8,0h-15.2c0.1,13.6,0,27.3,0,40.9v370.7h120.7c0.2,0,0.5,0,0.7,0c29.5-0.9,52.9-24.6,53.3-54.2c0-2.8,0-5.5,0-8.3   V136.5z"></path><path d="M751,554.1v381.6c0,5,0,10-0.1,15c0,5-0.1,10-0.1,15H542V595.1c0-13.6,0.3-27.3,0.3-40.9h14.2   c0.3,0,0.5,0,0.8,0c0.3,0,0.6,0,0.9,0h0.1c20.9-1.1,37.2-17.5,37.7-38.7c0-1.4,0-2.8,0-4.2V97.7c0-3.1,0-6.3,0-9.4   c0-5,0.1-10,0.1-15c0-5,0.1-10,0.1-15h101.5v367.1c0,29.4-0.1,58.8,0,88.2c0,11.3,3.7,22.3,12.3,30.1c7.5,6.8,16.8,10.2,26.9,10.4   c3,0.1,5.9,0,8.9,0H751z"></path></g></svg>