<svg height='100px' width='100px'  fill="#ffffff" xmlns="http://www.w3.org/2000/svg" data-name="Layer 1" viewBox="0 0 32 32" x="0px" y="0px"><title>Artboard 62</title><path d="M18,27h0a.5.5,0,0,1-.49-.45L16,10.35,14.5,23.41a.5.5,0,0,1-.49.44.55.55,0,0,1-.5-.42L12,13.66l-1.46,7.69a.5.5,0,0,1-1,0L7.93,14.72,6.48,19.3a.5.5,0,0,1-.9.12L3.73,16.5H1.5a.5.5,0,0,1,0-1H4a.5.5,0,0,1,.42.23L5.85,18,7.52,12.7a.46.46,0,0,1,.5-.35.5.5,0,0,1,.47.38l1.46,6.13,1.56-8.21a.48.48,0,0,1,.5-.41.5.5,0,0,1,.49.42l1.42,9L15.5,5.44a.5.5,0,0,1,1,0L18,21.65,19.5,8.59A.5.5,0,0,1,20,8.15a.52.52,0,0,1,.5.42L22,18.34l1.46-7.69a.5.5,0,0,1,.48-.41.51.51,0,0,1,.5.38l1.58,6.65,1.45-4.58a.5.5,0,0,1,.87-.16l2.5,3.15a.5.5,0,1,1-.78.62L28.19,13.9l-1.72,5.4a.48.48,0,0,1-.5.35.5.5,0,0,1-.47-.38l-1.46-6.13-1.56,8.21a.48.48,0,0,1-.5.41.5.5,0,0,1-.49-.42l-1.42-9L18.5,26.56A.5.5,0,0,1,18,27Z"></path></svg>