<svg height='100px' width='100px'  fill="#7b1ea2" xmlns="http://www.w3.org/2000/svg" xmlns:xlink="http://www.w3.org/1999/xlink" version="1.1" x="0px" y="0px" viewBox="0 0 100 100" enable-background="new 0 0 100 100" xml:space="preserve"><path d="M21.5,74.5c7,0,13.7,0.8,20.7,1.4c0.1,0,0.4-3.8-0.1-3.9c-2.3-0.6-4.8-1-7.2-1.3c8.7-3.1,16.7-8.5,23.8-13.9  c9.7-7.4,17.6-17.1,20-29.3c0.2-0.9-0.3-2.4-0.1-3c-2.6,12.5-11.2,22-21.4,29.2c-9.2,6.6-19.8,13-31.2,14.3c1.1-1,2.2-2,2.9-2.8  c2.1-2.4,4.1-4.9,5.7-7.7c0.2-0.4-0.3-1.7-0.1-2c-2.9,3.1-5.5,6.5-8.6,9.4c-2,1.9-4.3,3.2-4.6,6.1C21.2,71.5,21.1,74.5,21.5,74.5z"></path></svg>