<svg height='100px' width='100px'  fill="#ffffff" xmlns:dc="http://purl.org/dc/elements/1.1/" xmlns:cc="http://creativecommons.org/ns#" xmlns:rdf="http://www.w3.org/1999/02/22-rdf-syntax-ns#" xmlns:svg="http://www.w3.org/2000/svg" xmlns="http://www.w3.org/2000/svg" xmlns:sodipodi="http://sodipodi.sourceforge.net/DTD/sodipodi-0.dtd" xmlns:inkscape="http://www.inkscape.org/namespaces/inkscape" version="1.1" x="0px" y="0px" viewBox="0 0 100 100"><g transform="translate(0,-952.36218)"><path style="text-indent:0;text-transform:none;direction:ltr;block-progression:tb;baseline-shift:baseline;color:#000000;enable-background:accumulate;" d="m 49.980916,973.36216 c -8.372399,0 -15.195699,5.4516 -16.893999,12.25 -0.4018,1.5287 0.6349,3.2847 2.1679,3.6716 1.5328,0.3869 3.2789,-0.6666 3.651,-2.2029 0.912,-3.6505 5.429099,-7.7187 11.075099,-7.7187 2.7814,0 5.7004,1.021 7.7586,2.6875 2.0583,1.6665 3.2537,3.8125 3.2537,6.3125 0,3.2833 -0.6703,4.7571 -1.5643,5.9062 -0.8939,1.1492 -2.3263,2.0426 -4.1922,3.375 -1.8658,1.3325 -4.0866,3.17224 -5.6939,6.15634 -1.6071,2.9841 -2.5341,6.9792 -2.5341,12.5625 -0.1556,1.6573 1.3229,3.2808 2.9877,3.2808 1.6649,0 3.1434,-1.6235 2.9878,-3.2808 0,-4.9167 0.8275,-7.8277 1.8458,-9.7188 1.0184,-1.8908 2.2758,-2.9262 3.9106,-4.0937 1.6348,-1.1675 3.7121,-2.368 5.4436,-4.59384 1.7316,-2.2258 2.8158,-5.377 2.8158,-9.5937 0,-4.5 -2.3155,-8.3852 -5.5062,-10.9688 -3.1909,-2.5835 -7.3009,-4.0312 -11.5129,-4.0312 z m 0.031,50.00004 c -2.2116,0 -4.0044,1.7909 -4.0044,4 0,2.2091 1.7928,4 4.0044,4 2.2115,0 4.0045,-1.7909 4.0045,-4 0,-2.2091 -1.793,-4 -4.0045,-4 z" fill="#ffffff" fill-opacity="1" stroke="none" marker="none" visibility="visible" display="inline" overflow="visible"></path></g></svg>