<svg height='100px' width='100px'  fill="#ffffff" xmlns="http://www.w3.org/2000/svg" xmlns:xlink="http://www.w3.org/1999/xlink" version="1.1" x="0px" y="0px" viewBox="0 0 100 100" enable-background="new 0 0 100 100" xml:space="preserve"><rect x="5" y="4.993" fill="none" width="90.003" height="89.999"></rect><g><path d="M73.296,20.425c-1.275-3.01-3.098-5.714-5.416-8.035c-2.32-2.319-5.023-4.142-8.035-5.416   c-3.121-1.319-6.434-1.989-9.844-1.989c-3.412,0-6.723,0.67-9.844,1.989c-3.012,1.274-5.715,3.096-8.035,5.416   c-2.32,2.321-4.142,5.024-5.416,8.036c-1.32,3.121-1.989,6.433-1.989,9.844c0,0.313,0.255,0.569,0.57,0.569h10.965   c0.315,0,0.569-0.256,0.569-0.569c0-7.267,5.913-13.18,13.18-13.18c7.266,0,13.18,5.913,13.18,13.18   c0,4.124-1.879,7.935-5.152,10.454c-0.443,0.339-0.908,0.653-1.387,0.933c-0.055,0.032-0.111,0.064-0.166,0.096   c-0.029,0.017-0.059,0.034-0.092,0.053l-0.002,0.001c-7.67,4.11-12.433,12.063-12.433,20.762v4.344c0,0.315,0.255,0.57,0.57,0.57   h10.965c0.314,0,0.568-0.255,0.568-0.57v-4.344c0-4.258,2.344-8.14,6.115-10.13c0.082-0.043,0.162-0.088,0.242-0.135l0.07-0.042   c0.09-0.05,0.18-0.102,0.268-0.153c0.92-0.536,1.814-1.14,2.662-1.792c3-2.31,5.486-5.314,7.186-8.69   c1.785-3.545,2.691-7.367,2.691-11.357C75.286,26.858,74.616,23.546,73.296,20.425z"></path><path d="M50.001,76.399c-5.128,0-9.3,4.173-9.3,9.301s4.172,9.3,9.3,9.3c5.129,0,9.301-4.172,9.301-9.3S55.13,76.399,50.001,76.399   z"></path></g></svg>