<svg height='100px' width='100px' xmlns="http://www.w3.org/2000/svg" xmlns:xlink="http://www.w3.org/1999/xlink" version="1.1" x="0px" y="0px" viewBox="0 0 100 100" enable-background="new 0 0 100 100" xml:space="preserve"><path d="M84.01,55.563c-1.117-1.375-3.135-1.581-4.509-0.464c-1.373,1.117-1.581,3.136-0.464,4.509L82.609,64h-6.541  c-5.263,0-13.193-3.47-17.317-7.578l-5.997-5.968l6.861-6.828C63.766,39.493,71.497,36,76.5,36h5.944l-4.502,4.14  c-1.304,1.198-1.389,3.226-0.19,4.529c0.632,0.688,1.495,1.036,2.36,1.036c0.775,0,1.553-0.28,2.168-0.846l9.889-9.093  c0.626-0.576,0.998-1.376,1.033-2.226c0.036-0.85-0.268-1.678-0.844-2.304l-9.096-9.886c-1.198-1.302-3.227-1.387-4.528-0.189  c-1.303,1.199-1.388,3.227-0.188,4.529L82.511,30H76.5c-6.564,0-15.842,4.118-21.118,9.375L48.5,46.222l-6.881-6.847  C36.341,34.118,27.064,30,20.5,30H10c-1.657,0-3,1.343-3,3s1.343,3,3,3h10.5c5.002,0,12.735,3.493,16.886,7.627l6.861,6.827  l-5.998,5.968C34.125,60.53,26.195,64,20.932,64H10c-1.657,0-3,1.343-3,3s1.343,3,3,3h10.932c6.835,0,16.302-4.097,21.551-9.325  l6.018-5.988l6.018,5.988C59.768,65.903,69.234,70,76.068,70h6.397l-4.912,3.992c-1.374,1.116-1.582,3.135-0.466,4.509  c0.634,0.779,1.558,1.184,2.489,1.184c0.71,0,1.426-0.235,2.02-0.718l10.425-8.473c0.66-0.536,1.079-1.312,1.167-2.158  c0.087-0.847-0.165-1.692-0.702-2.352L84.01,55.563z"></path></svg>
