<svg height='100px' width='100px'  fill="#FFFFFF" xmlns="http://www.w3.org/2000/svg" xmlns:xlink="http://www.w3.org/1999/xlink" version="1.1" x="0px" y="0px" viewBox="0 0 100 100" enable-background="new 0 0 100 100" xml:space="preserve"><path fill="none" d="M71.483,51.225c-0.465-0.02-0.804,0.118-0.909,0.547c-0.107,0.434,0.211,0.606,0.553,0.721  c0.793,0.263,1.591,0.528,2.39,0.775c0.291,0.09,0.608,0.04,0.693-0.277c0.053-0.193-0.022-0.529-0.168-0.646  C73.283,51.731,72.422,51.316,71.483,51.225z"></path><path d="M76.71,41.785c-0.465-0.498-0.504-0.899-0.281-1.49c0.695-1.842,1.367-3.694,2.001-5.559  c0.484-1.418,0.906-2.858,1.34-4.292c0.126-0.425,0.029-0.517-0.411-0.369c-4.035,1.356-7.88,3.065-10.896,6.2  c-0.734,0.764-1.532,1.139-2.598,1.244c-3.304,0.326-6.425,1.307-9.348,2.885c-0.346,0.186-0.598,0.223-0.943,0.038  c-0.885-0.469-1.777-0.923-2.684-1.345c-2.393-1.108-4.853-2.038-7.486-2.36c-4.49-0.55-9.008-0.62-13.478,0.021  c-6.507,0.933-11.18,4.413-14.629,10.121c-0.743,1.229-1.507,2.574-1.929,4.485c-0.42,1.908-0.651,5.67,0.129,9.258  c0.324,1.491,1.144,3.885,2.473,4.5c1.559,0.721,3.147,1.389,4.763,1.965c3.611,1.289,7.336,2.081,11.164,2.356  c2.243,0.162,4.487,0.351,6.733,0.456c1.871,0.087,3.749,0.194,5.618-0.119c1.633-0.276,3.271-0.536,4.909-0.765  c3.199-0.445,6.19-1.483,9.012-3.039c0.674-0.371,1.078-0.957,1.325-1.643c0.263-0.732-0.072-1.275-0.851-1.317  c-0.677-0.036-1.378,0.009-2.044,0.144c-1.96,0.395-3.9,0.887-5.863,1.266c-1.038,0.202-2.104,0.287-3.163,0.36  c-2.242,0.153-4.487,0.362-6.731,0.368c-3.383,0.007-6.731-0.455-10.033-1.197c-2.476-0.558-5.034-1.803-6.82-3.018  c-0.172-0.133-0.5-0.59-0.216-0.894c0.355-0.38,1.231,0.371,1.827,0.611c1.014,0.406,2.002,0.884,3.021,1.281  c4.398,1.723,9.004,1.988,13.661,1.903c0.464-0.01,0.589-0.201,0.581-0.622c-0.02-1.062,0.025-2.13-0.027-3.19  c-0.135-2.703-0.861-5.227-2.318-7.531c-0.348-0.55-0.604-1.162-0.887-1.753c-0.081-0.166-0.125-0.586,0.126-0.727  c0.359-0.201,0.682,0.453,0.787,0.594c0.738,1.009,1.315,1.66,1.812,2.778c1.315,2.953,2.302,6.02,2.134,9.329  c-0.008,0.156,0.001,0.313-0.013,0.468c-0.028,0.396,0.137,0.592,0.542,0.556c0.529-0.047,1.056-0.102,1.586-0.142  c2.711-0.201,5.413-0.461,8.05-1.199c1.353-0.379,2.739-0.63,4.166-0.531c0.778,0.056,1.444,0.326,1.756,1.049  c0.265,0.612,0.174,1.286-0.057,1.923c-0.089,0.245-0.184,0.487-0.345,0.911c1.081-0.265,2.003-0.43,2.883-0.723  c1.242-0.412,2.505-0.822,3.665-1.413c1.793-0.913,2.304-2.622,1.5-4.457c-0.12-0.278-0.243-0.558-0.42-0.96  c0.527,0.285,1.836,0.601,2.412,0.705c1.911,0.352,3.739-0.131,5.488-0.802c1.086-0.419,1.565-1.38,1.428-2.596  c-0.052-0.462-0.085-0.944-0.014-1.4c0.175-1.107,0.375-2.213,0.644-3.302c0.464-1.887,0.418-3.703-0.455-5.479  C78.645,43.99,77.71,42.858,76.71,41.785z M74.211,52.99c-0.086,0.317-0.403,0.367-0.693,0.277  c-0.799-0.247-1.595-0.511-2.389-0.775c-0.344-0.114-0.661-0.287-0.555-0.721c0.105-0.429,0.446-0.565,0.911-0.547  c0.938,0.092,1.799,0.506,2.56,1.119C74.188,52.461,74.263,52.797,74.211,52.99z"></path><path d="M79.166,36.552c-0.191,0.097-0.348,0.352-0.426,0.566c-0.427,1.139-0.833,2.287-1.224,3.437  c-0.064,0.19-0.108,0.477-0.013,0.615c0.642,0.924,1.316,1.82,1.989,2.719c0.197,0.261,0.368,0.147,0.5-0.084  c0.11-0.189,0.225-0.376,0.32-0.572c0.855-1.735,1.71-3.468,2.557-5.208c0.544-1.121,1.917-3.429,1.697-3.564  C84.092,34.172,80.835,35.713,79.166,36.552z"></path></svg>