<?xml version="1.0" encoding="UTF-8"?>
<svg width="1200pt" height="1200pt" version="1.1" viewBox="0 0 1200 1200" xmlns="http://www.w3.org/2000/svg">
 <path d="m220.8 769.2c80.398 0 165.6 8.3984 244.8-2.3984 4.8008 0 2.3984-56.398-1.1992-56.398-69.602-6-142.8 2.3984-213.6 8.3984l1.1992-1.1992c121.2-27.602 241.2-81.602 357.6-122.4 122.4-42 248.4-78 370.8-122.4 3.6016-1.1992-2.3984-32.398-1.1992-33.602-124.8 27.602-248.4 67.199-370.8 106.8-94.801 30-196.8 57.602-291.6 96 38.398-40.801 74.398-75.602 79.199-73.199v1.1992s0-1.1992 1.1992-1.1992c2.3984-4.8008 2.3984-24-1.1992-28.801-2.3984-3.6016-90 73.199-141.6 130.8-4.8008 2.3984-8.3984 3.6016-13.199 6-1.1992 1.1992-2.3984 4.8008-2.3984 10.801-13.199 15.602-21.602 28.801-21.602 36 1.1992 3.5938 0 45.594 3.6016 45.594z" fill="#7a1ea2"/>
</svg>
