<svg height='100px' width='100px'  fill="#ffffff" xmlns="http://www.w3.org/2000/svg" xmlns:xlink="http://www.w3.org/1999/xlink" version="1.1" x="0px" y="0px" viewBox="0 0 95 95" enable-background="new 0 0 95 95" xml:space="preserve"><path d="M9.925,65.229l15.845-6.563c2.332,4.529,6.035,8.232,10.564,10.564l-6.563,15.845l3.695,1.531l6.561-15.841  c2.355,0.756,4.865,1.168,7.473,1.168c2.606,0,5.116-0.412,7.473-1.168l6.562,15.841l3.695-1.531L58.666,69.23  c4.529-2.332,8.232-6.036,10.564-10.564l15.846,6.563l1.529-3.695l-15.84-6.562c0.756-2.355,1.168-4.865,1.168-7.473  c0-2.606-0.412-5.116-1.168-7.471l15.841-6.563l-1.531-3.695L69.23,36.334c-2.332-4.529-6.035-8.233-10.564-10.564l6.563-15.845  l-3.695-1.531l-6.562,15.841c-2.356-0.756-4.866-1.168-7.473-1.168c-2.607,0-5.117,0.412-7.473,1.168L33.466,8.394l-3.695,1.531  l6.563,15.844c-4.529,2.332-8.233,6.036-10.564,10.565L9.924,29.771l-1.529,3.695l15.84,6.561c-0.756,2.355-1.168,4.865-1.168,7.472  c0,2.607,0.412,5.117,1.168,7.473L8.394,61.534L9.925,65.229z M33.755,34.151c3.138-3.137,7.308-4.865,11.745-4.865  c0.824,0,1.496,0.672,1.496,1.496c0,0.65-0.416,1.204-0.996,1.41v0.086l-0.5,0.008c-3.635,0-7.053,1.416-9.624,3.986  c-2.561,2.561-3.974,5.973-3.979,9.605l-0.001,0.5h-0.092c-0.206,0.58-0.76,0.996-1.41,0.996c-0.824,0-1.496-0.672-1.496-1.496  C28.904,41.442,30.629,37.278,33.755,34.151z"></path></svg>