<svg width="360" height="360" viewBox="0 0 360 360" fill="none" xmlns="http://www.w3.org/2000/svg">
<path d="M173.24 166.271C173.835 179.866 165.331 197.161 149.379 197.121C134.513 197.083 120.773 183.522 119.253 169.452C117.201 150.457 132.358 147.222 147.909 147.104C154.186 147.056 162.873 145.885 167.126 150.685C171.55 155.677 170.054 165.337 169.957 171.758C169.788 182.9 187.096 182.904 187.265 171.758C187.423 161.314 189.473 143.444 180.801 135.515C172.741 128.146 155.316 129.553 145.488 129.814C120.135 130.487 99.1037 142.283 101.891 170.623C104.163 193.735 124.191 212.747 147.56 214.23C173.479 215.875 191.586 189.98 190.547 166.271C190.061 155.177 172.751 155.117 173.24 166.271Z" fill="white"/>
<path d="M258.142 197.776C251.097 276.322 180.291 292.356 114.655 278.857C57.7909 267.162 27.7635 214.646 27.0257 158.462C26.2442 98.9627 89.3318 62.9125 143.508 60.2247C160.497 59.3818 182.909 59.787 197.487 68.4203C210.335 76.0291 222.704 92.5121 231.298 104.224C251.352 131.553 257.001 155.303 257.904 189.029C258.202 200.145 275.511 200.189 275.212 189.029C274.097 147.379 264.312 117.834 238.163 84.9822C213.02 53.3929 190.034 42.3678 149.694 42.9012C82.9868 43.7831 9.22869 85.7685 9.71797 158.462C9.94859 192.727 21.4576 226.969 41.8139 254.468C64.291 284.831 91.3515 292.911 127.858 298.966C201.271 311.144 268.339 277.052 275.45 197.776C276.445 186.685 259.131 186.752 258.142 197.776Z" fill="white"/>
<path d="M77.6534 214.166C101.057 234.346 131.782 267.337 161.669 276.808C178.361 282.098 204.68 277.963 221.929 278.125C248.551 278.375 275.173 278.626 301.794 278.876C312.935 278.981 312.944 261.673 301.794 261.568C261.457 261.189 215.009 267.147 175.342 260.38C143.545 254.955 114.021 222.733 89.8917 201.928C81.4949 194.688 69.1999 206.877 77.6534 214.166Z" fill="white"/>
<path d="M296.27 262.327C296.014 269.255 295.758 276.183 295.501 283.111C295.089 294.25 312.398 294.233 312.809 283.111C313.065 276.183 313.322 269.255 313.578 262.327C313.99 251.188 296.682 251.205 296.27 262.327Z" fill="white"/>
<path d="M332.295 275.057C336.565 292.248 321.039 297.328 307.413 299.49C296.258 301.26 285.549 291.558 282.805 280.804C279.163 266.534 282.097 255.798 297.228 252.14C312.167 248.529 329.434 251.814 331.421 269.815C332.63 280.766 349.952 280.889 348.729 269.815C345.957 244.707 325.634 230.293 300.836 233.839C290.069 235.378 277.473 238.721 270.131 247.387C262.752 256.095 263.723 268.247 265.101 278.83C267.876 300.135 285.056 319.85 307.665 316.805C319.467 315.216 335.364 312.272 343.429 302.537C350.579 293.909 351.573 280.876 348.984 270.456C346.3 259.652 329.604 264.229 332.295 275.057Z" fill="white"/>
</svg>
