<svg height='100px' width='100px'  fill="#ffffff" xmlns:dc="http://purl.org/dc/elements/1.1/" xmlns:cc="http://creativecommons.org/ns#" xmlns:rdf="http://www.w3.org/1999/02/22-rdf-syntax-ns#" xmlns:svg="http://www.w3.org/2000/svg" xmlns="http://www.w3.org/2000/svg" xmlns:sodipodi="http://sodipodi.sourceforge.net/DTD/sodipodi-0.dtd" xmlns:inkscape="http://www.inkscape.org/namespaces/inkscape" version="1.1" x="0px" y="0px" viewBox="0 0 100 100"><g transform="translate(0,-952.36218)"><g transform="translate(-995,644.99999)"><path d="m 1039,336.3622 c -7.732,0 -14,6.268 -14,14 0,7.732 6.268,14 14,14 7.732,0 14,-6.268 14,-14 0,-7.732 -6.268,-14 -14,-14 z m 0,38 c -18.836,0 -34,9.1662 -34,20 l 0,4 68,0 0,-4 c 0,-10.8338 -15.164,-20 -34,-20 z" style="color:#000000;enable-background:accumulate;" fill="#ffffff" stroke="none" marker="none" visibility="visible" display="inline" overflow="visible"></path><path d="m 1077.0981,316.3715 c -3.4539,-0.15309 -6.692,1.585 -7.9645,4.84224 a 2.0074107,2.0044304 0 1 0 3.748,1.43706 c 0.7264,-1.85955 1.6964,-2.38393 4.029,-2.28054 2.3468,0.104 4.0916,2.48152 4.0916,3.93627 0,2.96648 -0.891,3.63653 -2.3426,4.96721 -1.4513,1.33067 -3.6542,3.40107 -3.6542,7.0603 a 1.9991112,1.9961431 0 1 0 3.9979,0 c 0,-2.32859 0.7954,-2.73675 2.3425,-4.15496 1.5468,-1.4182 3.6542,-3.77772 3.6542,-7.87255 0,-3.93452 -3.2846,-7.73039 -7.9019,-7.93503 z m -0.094,23.99254 c -1.656,0 -2.9983,1.34273 -2.9983,2.99907 0,1.65633 1.3423,2.99907 2.9983,2.99907 1.656,0 2.9984,-1.34274 2.9984,-2.99907 0,-1.65634 -1.3424,-2.99907 -2.9984,-2.99907 z" style="text-indent:0;text-transform:none;direction:ltr;block-progression:tb;baseline-shift:baseline;color:#000000;enable-background:accumulate;" fill="#ffffff" fill-opacity="1" stroke="none" marker="none" visibility="visible" display="inline" overflow="visible"></path></g></g></svg>