<svg width="1282" height="1282" viewBox="0 0 1282 1282" fill="none" xmlns="http://www.w3.org/2000/svg">
<path d="M1281.6 0C1056.8 75.2 832 150.5 776.1 252.2C720.1 353.8 833.1 482 864.8 628.3C896.6 774.7 847.2 939.3 753.3 1036.8C659.4 1134.4 521.1 1164.9 388.1 1194.5C255.2 1224.1 127.6 1252.9 0 1281.6V0H1281.6Z" fill="#2E0059"/>
<path d="M961.2 0C792.6 56.4 624 112.9 582 189.1C540.1 265.4 624.8 361.5 648.6 471.3C672.5 581 635.4 704.5 565 777.6C494.6 850.8 390.8 873.7 291.1 895.9C191.4 918.1 95.7 939.7 0 961.2V0H961.2Z" fill="#4D0076"/>
<path d="M640.8 0C528.4 37.6 416 75.2 388 126.1C360.1 176.9 416.5 241 432.4 314.2C448.3 387.4 423.6 469.6 376.7 518.4C329.7 567.2 260.5 582.5 194.1 597.3C127.6 612.1 63.8 626.4 0 640.8V0H640.8Z" fill="#6C0793"/>
<path d="M320.4 0C264.2 18.8 208 37.6 194 63C180 88.5 208.3 120.5 216.2 157.1C224.2 193.7 211.8 234.8 188.3 259.2C164.9 283.6 130.3 291.2 97 298.6C63.8 306 31.9 313.2 0 320.4V0H320.4Z" fill="#7B1EA2"/>
</svg>
