<svg width="1283" height="2561" viewBox="0 0 1283 2561" fill="none" xmlns="http://www.w3.org/2000/svg">
<path d="M0 0C139.1 8.4 278.2 16.7999 389.4 83.2999C500.5 149.8 583.6 274.4 660.1 373.1C736.6 471.8 806.5 544.6 910.1 620.3C1013.8 696.1 1151.3 774.9 1218.9 885.6C1286.4 996.3 1284 1138.9 1281.6 1281.6H0V0Z" fill="#003200"/>
<path d="M0 320.4C104.3 326.7 208.7 333 292 382.9C375.4 432.7 437.7 526.2 495.1 600.2C552.4 674.2 604.8 728.8 682.6 785.7C760.4 842.5 863.5 901.5 914.2 984.6C964.8 1067.6 963 1174.6 961.2 1281.6H0V320.4Z" fill="#007941"/>
<path d="M0 640.8C69.6 645 139.1 649.2 194.7 682.4C250.2 715.7 291.8 778 330 827.3C368.3 876.7 403.2 913.1 455.1 951C506.9 988.9 575.7 1028.2 609.4 1083.6C643.2 1138.9 642 1210.3 640.8 1281.6H0V640.8Z" fill="#39C788"/>
<path d="M0 961.2C34.8 963.3 69.6 965.4 97.3 982C125.1 998.6 145.9 1029.8 165 1054.5C184.1 1079.1 201.6 1097.3 227.5 1116.3C253.5 1135.2 287.8 1154.9 304.7 1182.6C321.6 1210.3 321 1245.9 320.4 1281.6H0V961.2Z" fill="#69F0AE"/>
<path d="M1282.49 1278.6C1274.08 1417.6 1265.68 1556.61 1199.13 1667.73C1132.59 1778.75 1007.9 1861.8 909.131 1938.24C810.362 2014.69 737.512 2084.54 661.759 2188.07C585.907 2291.7 507.052 2429.1 396.275 2496.65C285.498 2564.11 142.799 2561.71 0 2559.31V1278.6H1282.49Z" fill="#003200"/>
<path d="M961.868 1278.6C955.563 1382.83 949.259 1487.16 899.324 1570.4C849.49 1653.74 755.925 1716 681.873 1773.36C607.822 1830.62 553.184 1882.98 496.244 1960.73C439.405 2038.47 380.364 2141.5 297.206 2192.17C214.149 2242.73 107.074 2240.93 0 2239.13V1278.6H961.868Z" fill="#007941"/>
<path d="M641.245 1278.6C637.042 1348.15 632.839 1417.6 599.616 1473.17C566.293 1528.63 503.95 1570.2 454.616 1608.37C405.181 1646.64 368.756 1681.52 330.83 1733.38C292.903 1785.15 253.576 1853.9 198.138 1887.58C142.799 1921.35 71.3495 1920.15 0 1918.96V1278.6H641.245Z" fill="#39C788"/>
<path d="M320.623 1278.6C318.521 1313.38 316.42 1348.15 299.808 1375.83C283.197 1403.61 251.975 1424.4 227.258 1443.49C202.641 1462.57 184.428 1480.06 165.415 1505.94C146.502 1531.92 126.788 1566.2 99.0688 1583.09C71.3495 1599.98 35.7248 1599.38 0 1598.78V1278.6H320.623Z" fill="#69F0AE"/>
</svg>
