<svg width="2748" height="5842" viewBox="0 0 2748 5842" fill="none" xmlns="http://www.w3.org/2000/svg">
<path d="M1333.67 4201.59C1259.53 4021.85 1185.39 3842.11 1048.8 3823.78C912.317 3805.44 713.282 3948.5 588.509 3933.04C463.737 3917.58 413.226 3743.59 364.242 3606.67C315.26 3469.65 267.702 3369.79 222.824 3254.81C177.943 3139.93 135.642 3009.92 93.3386 2880.02L1374.29 2920.64L1333.67 4201.59Z" fill="#2E0059"/>
<path d="M1343.83 3881.36C1288.27 3746.53 1232.62 3611.8 1130.2 3598.04C1027.78 3584.29 878.507 3691.61 784.93 3679.94C691.35 3668.37 653.467 3537.9 616.704 3435.18C579.941 3332.47 544.4 3257.5 510.715 3171.29C477.031 3085.08 445.304 2987.63 413.577 2890.17L1374.29 2920.64L1343.83 3881.36Z" fill="#4D0076"/>
<path d="M1353.98 3561.12C1316.91 3471.3 1279.84 3381.38 1211.6 3372.21C1143.26 3363.04 1043.74 3434.62 981.352 3426.84C919.064 3419.16 893.81 3332.12 869.27 3263.6C844.726 3195.19 820.998 3145.21 798.508 3087.77C776.12 3030.23 754.967 2965.33 733.817 2900.33L1374.29 2920.64L1353.98 3561.12Z" fill="#6C0793"/>
<path d="M1364.14 3240.88C1345.65 3195.97 1327.07 3151.06 1292.9 3146.47C1258.82 3141.89 1209.07 3177.63 1177.87 3173.74C1146.68 3169.85 1134.05 3126.43 1121.73 3092.12C1109.51 3057.92 1097.7 3032.93 1086.4 3004.16C1075.21 2975.49 1064.63 2942.94 1054.06 2910.48L1374.29 2920.64L1364.14 3240.88Z" fill="#7B1EA2"/>
<path d="M2653.65 2961.21C2473.91 3035.35 2294.17 3109.49 2275.83 3246.08C2257.5 3382.57 2400.56 3581.6 2385.1 3706.37C2369.63 3831.15 2195.65 3881.66 2058.72 3930.64C1921.7 3979.62 1821.85 4027.18 1706.86 4072.06C1591.98 4116.94 1461.98 4159.24 1332.07 4201.54L1372.7 2920.59L2653.65 2961.21Z" fill="#2E0059"/>
<path d="M2333.41 2951.06C2198.58 3006.61 2063.85 3062.27 2050.1 3164.68C2036.35 3267.1 2143.67 3416.38 2132 3509.95C2120.42 3603.53 1989.96 3641.42 1887.24 3678.18C1784.52 3714.94 1709.56 3750.48 1623.35 3784.17C1537.14 3817.85 1439.68 3849.58 1342.23 3881.31L1372.7 2920.59L2333.41 2951.06Z" fill="#4D0076"/>
<path d="M2013.17 2940.9C1923.35 2977.97 1833.43 3015.04 1824.27 3083.28C1815.09 3151.63 1886.68 3251.15 1878.89 3313.53C1871.22 3375.82 1784.17 3401.07 1715.66 3425.61C1647.25 3450.16 1597.27 3473.88 1539.83 3496.38C1482.29 3518.76 1417.39 3539.92 1352.38 3561.07L1372.7 2920.59L2013.17 2940.9Z" fill="#6C0793"/>
<path d="M1692.93 2930.74C1648.03 2949.23 1603.11 2967.82 1598.53 3001.99C1593.95 3036.06 1629.69 3085.82 1625.8 3117.01C1621.91 3148.2 1578.48 3160.83 1544.18 3173.15C1509.97 3185.37 1484.98 3197.19 1456.21 3208.48C1427.54 3219.68 1394.99 3230.25 1362.54 3240.83L1372.7 2920.59L1692.93 2930.74Z" fill="#7B1EA2"/>
<path d="M1413.71 1639.84C1487.85 1819.59 1561.99 1999.33 1698.58 2017.66C1835.07 2036 2034.1 1892.94 2158.87 1908.4C2283.65 1923.86 2334.16 2097.85 2383.14 2234.77C2432.12 2371.79 2479.68 2471.65 2524.56 2586.63C2569.44 2701.51 2611.74 2831.52 2654.04 2961.42L1373.09 2920.8L1413.71 1639.84Z" fill="#2E0059"/>
<path d="M1403.56 1960.08C1459.11 2094.91 1514.77 2229.64 1617.18 2243.4C1719.6 2257.15 1868.88 2149.83 1962.45 2161.5C2056.03 2173.07 2093.92 2303.54 2130.68 2406.26C2167.44 2508.97 2202.98 2583.94 2236.67 2670.15C2270.35 2756.36 2302.08 2853.81 2333.81 2951.27L1373.09 2920.8L1403.56 1960.08Z" fill="#4D0076"/>
<path d="M1393.4 2280.32C1430.47 2370.14 1467.54 2460.06 1535.78 2469.23C1604.13 2478.4 1703.65 2406.82 1766.03 2414.6C1828.32 2422.28 1853.57 2509.32 1878.11 2577.84C1902.66 2646.25 1926.39 2696.23 1948.88 2753.67C1971.26 2811.21 1992.42 2876.11 2013.57 2941.11L1373.09 2920.8L1393.4 2280.32Z" fill="#6C0793"/>
<path d="M1383.24 2600.56C1401.73 2645.47 1420.32 2690.38 1454.49 2694.97C1488.56 2699.55 1538.32 2663.81 1569.51 2667.7C1600.7 2671.59 1613.33 2715.01 1625.65 2749.32C1637.87 2783.52 1649.69 2808.51 1660.98 2837.28C1672.18 2865.95 1682.75 2898.51 1693.33 2930.96L1373.09 2920.8L1383.24 2600.56Z" fill="#7B1EA2"/>
<path d="M93.7316 2880.23C273.472 2806.09 453.212 2731.95 471.551 2595.36C489.886 2458.87 346.823 2259.84 362.286 2135.07C377.749 2010.29 551.737 1959.78 688.659 1910.8C825.68 1861.82 925.538 1814.26 1040.52 1769.38C1155.4 1724.5 1285.4 1682.2 1415.31 1639.9L1374.69 2920.85L93.7316 2880.23Z" fill="#2E0059"/>
<path d="M413.971 2890.38C548.799 2834.83 683.531 2779.17 697.284 2676.76C711.038 2574.34 603.715 2425.06 615.387 2331.49C626.959 2237.91 757.426 2200.02 860.143 2163.26C962.86 2126.5 1037.82 2090.96 1124.03 2057.27C1210.25 2023.59 1307.7 1991.86 1405.16 1960.13L1374.69 2920.85L413.971 2890.38Z" fill="#4D0076"/>
<path d="M734.21 2900.54C824.03 2863.47 913.95 2826.4 923.118 2758.16C932.289 2689.81 860.707 2590.29 868.489 2527.91C876.167 2465.62 963.211 2440.37 1031.72 2415.83C1100.14 2391.28 1150.11 2367.56 1207.55 2345.06C1265.09 2322.68 1330 2301.52 1395 2280.37L1374.69 2920.85L734.21 2900.54Z" fill="#6C0793"/>
<path d="M1054.45 2910.7C1099.36 2892.21 1144.27 2873.62 1148.85 2839.45C1153.44 2805.38 1117.7 2755.62 1121.59 2724.43C1125.48 2693.24 1168.9 2680.61 1203.21 2668.29C1237.41 2656.07 1262.4 2644.25 1291.17 2632.96C1319.84 2621.76 1352.39 2611.19 1384.84 2600.61L1374.69 2920.85L1054.45 2910.7Z" fill="#7B1EA2"/>
</svg>
