<svg width="1397" height="1601" viewBox="0 0 1397 1601" fill="none" xmlns="http://www.w3.org/2000/svg">
<g clip-path="url(#clip0_37_15)">
<path d="M115 319.6C292.3 239.8 469.6 160 483.6 22.9C497.6 -114.1 348.3 -308.5 359.8 -433.7C371.3 -558.9 543.6 -614.9 678.9 -668.2C814.3 -721.5 912.6 -772.2 1026.1 -820.7C1139.5 -869.2 1268.1 -915.6 1396.6 -962V319.6H115Z" fill="#2E0059"/>
<path d="M435.4 319.6C568.4 259.8 701.3 199.9 711.8 97.0998C722.3 -5.70018 610.3 -151.5 619 -245.4C627.6 -339.3 756.8 -381.3 858.3 -421.3C959.8 -461.3 1033.6 -499.2 1118.7 -535.6C1203.8 -572 1300.2 -606.8 1396.6 -641.6V319.6H435.4Z" fill="#4D0076"/>
<path d="M755.8 319.6C844.4 279.7 933.1 239.8 940.1 171.3C947.1 102.7 872.4 5.49962 878.2 -57.1004C883.9 -119.6 970.1 -147.6 1037.8 -174.3C1105.4 -201 1154.6 -226.3 1211.3 -250.6C1268.1 -274.8 1332.3 -298 1396.6 -321.2V319.6H755.8Z" fill="#6C0793"/>
<path d="M1076.2 319.6C1120.5 299.7 1164.8 279.7 1168.3 245.4C1171.8 211.2 1134.5 162.6 1137.4 131.3C1140.3 100 1183.3 86.0002 1217.2 72.6002C1251 59.3002 1275.6 46.7002 1304 34.5002C1332.3 22.4002 1364.5 10.8002 1396.6 -0.799805V319.6H1076.2Z" fill="#7B1EA2"/>
<path d="M1396.6 1599.6C1316.8 1422.3 1237 1245 1099.9 1231C962.9 1217 768.5 1366.3 643.3 1354.8C518.1 1343.3 462.1 1171 408.8 1035.7C355.5 900.3 304.8 802 256.3 688.5C207.8 575.1 161.4 446.5 115 318H1396.6V1599.6Z" fill="#2E0059"/>
<path d="M1396.6 1279.2C1336.8 1146.2 1276.9 1013.3 1174.1 1002.8C1071.3 992.3 925.5 1104.3 831.6 1095.6C737.7 1087 695.7 957.8 655.7 856.3C615.7 754.8 577.8 681 541.4 595.9C505 510.8 470.2 414.4 435.4 318H1396.6V1279.2Z" fill="#4D0076"/>
<path d="M1396.6 958.8C1356.7 870.2 1316.8 781.5 1248.3 774.5C1179.7 767.5 1082.5 842.2 1019.9 836.4C957.4 830.7 929.4 744.5 902.7 676.8C876 609.2 850.7 560 826.4 503.3C802.2 446.5 779 382.3 755.8 318H1396.6V958.8Z" fill="#6C0793"/>
<path d="M1396.6 638.4C1376.7 594.1 1356.7 549.8 1322.4 546.3C1288.2 542.8 1239.6 580.1 1208.3 577.2C1177 574.3 1163 531.3 1149.6 497.4C1136.3 463.6 1123.7 439 1111.5 410.6C1099.4 382.3 1087.8 350.1 1076.2 318H1396.6V638.4Z" fill="#7B1EA2"/>
</g>
<defs>
<clipPath id="clip0_37_15">
<rect width="1397" height="1601" fill="white"/>
</clipPath>
</defs>
</svg>
