<svg width="1282" height="1283" viewBox="0 0 1282 1283" fill="none" xmlns="http://www.w3.org/2000/svg">
<path d="M1281.6 0C1273.2 139.1 1264.8 278.2 1198.3 389.4C1131.8 500.5 1007.2 583.6 908.5 660.1C809.8 736.6 737 806.5 661.3 910.1C585.5 1013.8 506.7 1151.3 396 1218.9C285.3 1286.4 142.7 1284 0 1281.6V0H1281.6Z" fill="#003200"/>
<path d="M961.2 0C954.9 104.3 948.6 208.7 898.7 292C848.9 375.4 755.4 437.7 681.4 495.1C607.4 552.4 552.8 604.8 495.9 682.6C439.1 760.4 380.1 863.5 297 914.2C214 964.8 107 963 0 961.2V0H961.2Z" fill="#007941"/>
<path d="M640.8 0C636.6 69.6 632.4 139.1 599.2 194.7C565.9 250.2 503.6 291.8 454.3 330C404.9 368.3 368.5 403.2 330.6 455.1C292.7 506.9 253.4 575.7 198 609.4C142.7 643.2 71.3 642 0 640.8V0H640.8Z" fill="#39C788"/>
<path d="M320.4 0C318.3 34.8 316.2 69.6 299.6 97.3C283 125.1 251.8 145.9 227.1 165C202.5 184.1 184.3 201.6 165.3 227.5C146.4 253.5 126.7 287.8 99 304.7C71.3 321.6 35.7 321 0 320.4V0H320.4Z" fill="#69F0AE"/>
</svg>
