<svg width="1020" height="1020" viewBox="0 0 1020 1020" fill="none" xmlns="http://www.w3.org/2000/svg">
<path d="M0 1020C141.11 956.489 282.219 892.978 293.362 783.863C304.504 674.827 185.679 520.108 194.831 420.464C203.984 320.819 341.114 276.25 448.797 233.83C556.559 191.409 634.794 151.058 725.127 112.458C815.38 73.8576 917.73 36.9289 1020 0V1020H0Z" fill="#2E0059"/>
<path d="M255 1020C360.852 972.407 466.624 924.733 474.981 842.917C483.338 761.1 394.199 645.061 401.123 570.328C407.968 495.595 510.796 462.168 591.578 430.332C672.359 398.497 731.095 368.333 798.825 339.363C866.554 310.393 943.277 282.697 1020 255V1020H255Z" fill="#4D0076"/>
<path d="M510 1020C580.515 988.245 651.109 956.489 656.681 901.971C662.252 847.374 602.799 770.014 607.416 720.192C611.952 670.449 680.557 648.165 734.438 626.915C788.24 605.665 827.397 585.529 872.523 566.189C917.729 546.929 968.825 528.464 1020 510V1020H510Z" fill="#6C0793"/>
<path d="M765 1020C800.257 1004.16 835.515 988.244 838.3 960.946C841.086 933.727 811.4 895.047 813.708 870.136C816.016 845.225 850.239 834.082 877.219 823.418C904.12 812.832 923.698 802.804 946.301 793.095C968.825 783.464 994.452 774.232 1020 765V1020H765Z" fill="#7B1EA2"/>
</svg>
