<svg width="1397" height="952" viewBox="0 0 1397 952" fill="none" xmlns="http://www.w3.org/2000/svg">
<g clip-path="url(#clip0_37_28)">
<path d="M115 1281.6C292.3 1201.8 469.6 1122 483.6 984.9C497.6 847.9 348.3 653.5 359.8 528.3C371.3 403.1 543.6 347.1 678.9 293.8C814.3 240.5 912.6 189.8 1026.1 141.3C1139.5 92.7999 1268.1 46.4 1396.6 0V1281.6H115Z" fill="#2E0059"/>
<path d="M435.4 1281.6C568.4 1221.8 701.3 1161.9 711.8 1059.1C722.3 956.3 610.3 810.5 619 716.6C627.6 622.7 756.8 580.7 858.3 540.7C959.8 500.7 1033.6 462.8 1118.7 426.4C1203.8 390 1300.2 355.2 1396.6 320.4V1281.6H435.4Z" fill="#4D0076"/>
<path d="M755.8 1281.6C844.4 1241.7 933.1 1201.8 940.1 1133.3C947.1 1064.7 872.4 967.5 878.2 904.9C883.9 842.4 970.1 814.4 1037.8 787.7C1105.4 761 1154.6 735.7 1211.3 711.4C1268.1 687.2 1332.3 664 1396.6 640.8V1281.6H755.8Z" fill="#6C0793"/>
</g>
<defs>
<clipPath id="clip0_37_28">
<rect width="1397" height="952" fill="white"/>
</clipPath>
</defs>
</svg>
