<svg width="1282" height="1286" viewBox="0 0 1282 1286" fill="none" xmlns="http://www.w3.org/2000/svg">
<path d="M1282 1281.6C1136 1289 989.9 1296.4 886 1218.9C782 1141.4 720.1 979 650.7 868.9C581.4 758.7 504.6 700.8 415.5 629.5C326.5 558.2 225.3 473.6 154 366.5C82.8 259.4 41.6 129.7 0.400024 0H1282V1281.6Z" fill="#003200"/>
<path d="M1282 961.2C1172.5 966.7 1063 972.3 985 914.2C907 856 860.6 734.3 808.5 651.7C756.5 569.1 698.9 525.6 632.2 472.1C565.4 418.7 489.5 355.2 436 274.9C382.6 194.5 351.7 97.3 320.8 0H1282V961.2Z" fill="#007941"/>
<path d="M1282 640.8C1209 644.5 1136 648.2 1084 609.4C1032 570.7 1001 489.5 966.4 434.4C931.7 379.4 893.3 350.4 848.8 314.8C804.3 279.1 753.6 236.8 718 183.2C682.4 129.7 661.8 64.8 641.2 0H1282V640.8Z" fill="#39C788"/>
<path d="M1282 320.4C1245.5 322.2 1209 324.1 1183 304.7C1157 285.3 1141.5 244.8 1124.2 217.2C1106.8 189.7 1087.6 175.2 1065.4 157.4C1043.1 139.6 1017.8 118.4 1000 91.6C982.2 64.8 971.9 32.4 961.6 0H1282V320.4Z" fill="#69F0AE"/>
</svg>
