<svg width="1282" height="1282" viewBox="0 0 1282 1282" fill="none" xmlns="http://www.w3.org/2000/svg">
<path d="M0 0.399902C75.2 225.2 150.5 450 252.2 505.9C353.8 561.9 482 448.9 628.3 417.2C774.7 385.4 939.3 434.8 1036.8 528.7C1134.4 622.6 1164.9 760.9 1194.5 893.9C1224.1 1026.8 1252.9 1154.4 1281.6 1282H0V0.399902Z" fill="#2E0059"/>
<path d="M0 320.8C56.4 489.4 112.9 658 189.1 700C265.4 741.9 361.5 657.2 471.3 633.4C581 609.5 704.5 646.6 777.6 717C850.8 787.4 873.7 891.2 895.9 990.9C918.1 1090.6 939.7 1186.3 961.2 1282H0V320.8Z" fill="#4D0076"/>
<path d="M0 641.2C37.6 753.6 75.2 866 126.1 894C176.9 921.9 241 865.5 314.2 849.6C387.4 833.7 469.6 858.4 518.4 905.3C567.2 952.3 582.5 1021.5 597.3 1087.9C612.1 1154.4 626.4 1218.2 640.8 1282H0V641.2Z" fill="#6C0793"/>
<path d="M0 961.6C18.8 1017.8 37.6 1074 63 1088C88.5 1102 120.5 1073.7 157.1 1065.8C193.7 1057.8 234.8 1070.2 259.2 1093.7C283.6 1117.1 291.2 1151.7 298.6 1185C306 1218.2 313.2 1250.1 320.4 1282H0V961.6Z" fill="#7B1EA2"/>
</svg>
