<svg width="1283" height="1282" viewBox="0 0 1283 1282" fill="none" xmlns="http://www.w3.org/2000/svg">
<path d="M0 0.400024C139.1 8.80002 278.2 17.2 389.4 83.7C500.5 150.2 583.6 274.8 660.1 373.5C736.6 472.2 806.5 545 910.1 620.7C1013.8 696.5 1151.3 775.3 1218.9 886C1286.4 996.7 1284 1139.3 1281.6 1282H0V0.400024Z" fill="#003200"/>
<path d="M0 320.8C104.3 327.1 208.7 333.4 292 383.3C375.4 433.1 437.7 526.6 495.1 600.6C552.4 674.6 604.8 729.2 682.6 786.1C760.4 842.9 863.5 901.9 914.2 985C964.8 1068 963 1175 961.2 1282H0V320.8Z" fill="#007941"/>
<path d="M0 641.2C69.6 645.4 139.1 649.6 194.7 682.8C250.2 716.1 291.8 778.4 330 827.7C368.3 877.1 403.2 913.5 455.1 951.4C506.9 989.3 575.7 1028.6 609.4 1084C643.2 1139.3 642 1210.7 640.8 1282H0V641.2Z" fill="#39C788"/>
<path d="M0 961.6C34.8 963.7 69.6 965.8 97.3 982.4C125.1 999 145.9 1030.2 165 1054.9C184.1 1079.5 201.6 1097.7 227.5 1116.7C253.5 1135.6 287.8 1155.3 304.7 1183C321.6 1210.7 321 1246.3 320.4 1282H0V961.6Z" fill="#69F0AE"/>
</svg>
